G04 #@! TF.GenerationSoftware,KiCad,Pcbnew,5.1.4+dfsg1-1*
G04 #@! TF.CreationDate,2020-01-05T16:23:31-08:00*
G04 #@! TF.ProjectId,distance_meter_hardware,64697374-616e-4636-955f-6d657465725f,rev?*
G04 #@! TF.SameCoordinates,Original*
G04 #@! TF.FileFunction,Copper,L2,Bot*
G04 #@! TF.FilePolarity,Positive*
%FSLAX46Y46*%
G04 Gerber Fmt 4.6, Leading zero omitted, Abs format (unit mm)*
G04 Created by KiCad (PCBNEW 5.1.4+dfsg1-1) date 2020-01-05 16:23:31*
%MOMM*%
%LPD*%
G04 APERTURE LIST*
%ADD10C,1.520000*%
%ADD11R,1.520000X1.520000*%
%ADD12C,5.400000*%
%ADD13C,0.254000*%
G04 APERTURE END LIST*
D10*
X131640000Y-60020005D03*
X134180000Y-60020005D03*
X136720000Y-60020005D03*
X139260000Y-60020005D03*
X141800000Y-60020005D03*
X144340000Y-60020005D03*
D11*
X146880000Y-60020005D03*
X145150000Y-77520005D03*
D10*
X142610000Y-77520005D03*
X140070000Y-77520005D03*
X137530000Y-77520005D03*
X134990000Y-77520005D03*
X132450000Y-77520005D03*
X129910000Y-77520005D03*
X101470000Y-85280000D03*
X101470000Y-82740000D03*
X101470000Y-80200000D03*
X101470000Y-77660000D03*
X101470000Y-75120000D03*
X101470000Y-72580000D03*
X101470000Y-70040000D03*
X101470000Y-67500000D03*
X101470000Y-64960000D03*
X101470000Y-62420000D03*
X101470000Y-59880000D03*
X101470000Y-57340000D03*
D11*
X101470000Y-52260000D03*
D10*
X101470000Y-54800000D03*
X116710000Y-54800000D03*
D11*
X116710000Y-52260000D03*
D10*
X116710000Y-57340000D03*
X116710000Y-59880000D03*
X116710000Y-62420000D03*
X116710000Y-64960000D03*
X116710000Y-67500000D03*
X116710000Y-70040000D03*
X116710000Y-72580000D03*
X116710000Y-75120000D03*
X116710000Y-77660000D03*
X116710000Y-80200000D03*
X116710000Y-82740000D03*
X116710000Y-85280000D03*
D11*
X85350000Y-56300000D03*
D10*
X82810000Y-56300000D03*
X80270000Y-56300000D03*
X77730000Y-56300000D03*
X75190000Y-56300000D03*
X72650000Y-56300000D03*
X70110000Y-56300000D03*
X70110000Y-81210000D03*
X72650000Y-81210000D03*
X75190000Y-81210000D03*
X77730000Y-81210000D03*
X80270000Y-81210000D03*
X82810000Y-81210000D03*
D11*
X85350000Y-81210000D03*
D12*
X150170000Y-44770000D03*
X150170000Y-92770000D03*
X62170000Y-92770000D03*
X62170000Y-44770000D03*
D13*
X82810000Y-61540000D02*
X82810000Y-56300000D01*
X101470000Y-80200000D02*
X82810000Y-61540000D01*
G36*
X148590285Y-41814561D02*
G01*
X148044061Y-42179536D01*
X147579536Y-42644061D01*
X147214561Y-43190285D01*
X146963162Y-43797216D01*
X146835000Y-44441531D01*
X146835000Y-45098469D01*
X146963162Y-45742784D01*
X147214561Y-46349715D01*
X147579536Y-46895939D01*
X148044061Y-47360464D01*
X148590285Y-47725439D01*
X149197216Y-47976838D01*
X149841531Y-48105000D01*
X150498469Y-48105000D01*
X151142784Y-47976838D01*
X151749715Y-47725439D01*
X152295939Y-47360464D01*
X152760464Y-46895939D01*
X153125439Y-46349715D01*
X153210000Y-46145567D01*
X153210001Y-91394436D01*
X153125439Y-91190285D01*
X152760464Y-90644061D01*
X152295939Y-90179536D01*
X151749715Y-89814561D01*
X151142784Y-89563162D01*
X150498469Y-89435000D01*
X149841531Y-89435000D01*
X149197216Y-89563162D01*
X148590285Y-89814561D01*
X148044061Y-90179536D01*
X147579536Y-90644061D01*
X147214561Y-91190285D01*
X146963162Y-91797216D01*
X146835000Y-92441531D01*
X146835000Y-93098469D01*
X146963162Y-93742784D01*
X147214561Y-94349715D01*
X147579536Y-94895939D01*
X148044061Y-95360464D01*
X148590285Y-95725439D01*
X148794433Y-95810000D01*
X63545567Y-95810000D01*
X63749715Y-95725439D01*
X64295939Y-95360464D01*
X64760464Y-94895939D01*
X65125439Y-94349715D01*
X65376838Y-93742784D01*
X65505000Y-93098469D01*
X65505000Y-92441531D01*
X65376838Y-91797216D01*
X65125439Y-91190285D01*
X64760464Y-90644061D01*
X64295939Y-90179536D01*
X63749715Y-89814561D01*
X63142784Y-89563162D01*
X62498469Y-89435000D01*
X61841531Y-89435000D01*
X61197216Y-89563162D01*
X60590285Y-89814561D01*
X60044061Y-90179536D01*
X59579536Y-90644061D01*
X59214561Y-91190285D01*
X59130000Y-91394433D01*
X59130000Y-81072604D01*
X68715000Y-81072604D01*
X68715000Y-81347396D01*
X68768609Y-81616907D01*
X68873767Y-81870780D01*
X69026433Y-82099261D01*
X69220739Y-82293567D01*
X69449220Y-82446233D01*
X69703093Y-82551391D01*
X69972604Y-82605000D01*
X70247396Y-82605000D01*
X70516907Y-82551391D01*
X70770780Y-82446233D01*
X70999261Y-82293567D01*
X71193567Y-82099261D01*
X71346233Y-81870780D01*
X71380000Y-81789260D01*
X71413767Y-81870780D01*
X71566433Y-82099261D01*
X71760739Y-82293567D01*
X71989220Y-82446233D01*
X72243093Y-82551391D01*
X72512604Y-82605000D01*
X72787396Y-82605000D01*
X73056907Y-82551391D01*
X73310780Y-82446233D01*
X73539261Y-82293567D01*
X73733567Y-82099261D01*
X73886233Y-81870780D01*
X73920000Y-81789260D01*
X73953767Y-81870780D01*
X74106433Y-82099261D01*
X74300739Y-82293567D01*
X74529220Y-82446233D01*
X74783093Y-82551391D01*
X75052604Y-82605000D01*
X75327396Y-82605000D01*
X75596907Y-82551391D01*
X75850780Y-82446233D01*
X76079261Y-82293567D01*
X76273567Y-82099261D01*
X76426233Y-81870780D01*
X76460000Y-81789260D01*
X76493767Y-81870780D01*
X76646433Y-82099261D01*
X76840739Y-82293567D01*
X77069220Y-82446233D01*
X77323093Y-82551391D01*
X77592604Y-82605000D01*
X77867396Y-82605000D01*
X78136907Y-82551391D01*
X78390780Y-82446233D01*
X78619261Y-82293567D01*
X78813567Y-82099261D01*
X78966233Y-81870780D01*
X79000000Y-81789260D01*
X79033767Y-81870780D01*
X79186433Y-82099261D01*
X79380739Y-82293567D01*
X79609220Y-82446233D01*
X79863093Y-82551391D01*
X80132604Y-82605000D01*
X80407396Y-82605000D01*
X80676907Y-82551391D01*
X80930780Y-82446233D01*
X81159261Y-82293567D01*
X81353567Y-82099261D01*
X81506233Y-81870780D01*
X81540000Y-81789260D01*
X81573767Y-81870780D01*
X81726433Y-82099261D01*
X81920739Y-82293567D01*
X82149220Y-82446233D01*
X82403093Y-82551391D01*
X82672604Y-82605000D01*
X82947396Y-82605000D01*
X83216907Y-82551391D01*
X83470780Y-82446233D01*
X83699261Y-82293567D01*
X83893567Y-82099261D01*
X83955526Y-82006533D01*
X83964188Y-82094482D01*
X84000498Y-82214180D01*
X84059463Y-82324494D01*
X84138815Y-82421185D01*
X84235506Y-82500537D01*
X84345820Y-82559502D01*
X84465518Y-82595812D01*
X84590000Y-82608072D01*
X86110000Y-82608072D01*
X86234482Y-82595812D01*
X86354180Y-82559502D01*
X86464494Y-82500537D01*
X86561185Y-82421185D01*
X86640537Y-82324494D01*
X86699502Y-82214180D01*
X86735812Y-82094482D01*
X86748072Y-81970000D01*
X86748072Y-80450000D01*
X86735812Y-80325518D01*
X86699502Y-80205820D01*
X86640537Y-80095506D01*
X86561185Y-79998815D01*
X86464494Y-79919463D01*
X86354180Y-79860498D01*
X86234482Y-79824188D01*
X86110000Y-79811928D01*
X84590000Y-79811928D01*
X84465518Y-79824188D01*
X84345820Y-79860498D01*
X84235506Y-79919463D01*
X84138815Y-79998815D01*
X84059463Y-80095506D01*
X84000498Y-80205820D01*
X83964188Y-80325518D01*
X83955526Y-80413467D01*
X83893567Y-80320739D01*
X83699261Y-80126433D01*
X83470780Y-79973767D01*
X83216907Y-79868609D01*
X82947396Y-79815000D01*
X82672604Y-79815000D01*
X82403093Y-79868609D01*
X82149220Y-79973767D01*
X81920739Y-80126433D01*
X81726433Y-80320739D01*
X81573767Y-80549220D01*
X81540000Y-80630740D01*
X81506233Y-80549220D01*
X81353567Y-80320739D01*
X81159261Y-80126433D01*
X80930780Y-79973767D01*
X80676907Y-79868609D01*
X80407396Y-79815000D01*
X80132604Y-79815000D01*
X79863093Y-79868609D01*
X79609220Y-79973767D01*
X79380739Y-80126433D01*
X79186433Y-80320739D01*
X79033767Y-80549220D01*
X79000000Y-80630740D01*
X78966233Y-80549220D01*
X78813567Y-80320739D01*
X78619261Y-80126433D01*
X78390780Y-79973767D01*
X78136907Y-79868609D01*
X77867396Y-79815000D01*
X77592604Y-79815000D01*
X77323093Y-79868609D01*
X77069220Y-79973767D01*
X76840739Y-80126433D01*
X76646433Y-80320739D01*
X76493767Y-80549220D01*
X76460000Y-80630740D01*
X76426233Y-80549220D01*
X76273567Y-80320739D01*
X76079261Y-80126433D01*
X75850780Y-79973767D01*
X75596907Y-79868609D01*
X75327396Y-79815000D01*
X75052604Y-79815000D01*
X74783093Y-79868609D01*
X74529220Y-79973767D01*
X74300739Y-80126433D01*
X74106433Y-80320739D01*
X73953767Y-80549220D01*
X73920000Y-80630740D01*
X73886233Y-80549220D01*
X73733567Y-80320739D01*
X73539261Y-80126433D01*
X73310780Y-79973767D01*
X73056907Y-79868609D01*
X72787396Y-79815000D01*
X72512604Y-79815000D01*
X72243093Y-79868609D01*
X71989220Y-79973767D01*
X71760739Y-80126433D01*
X71566433Y-80320739D01*
X71413767Y-80549220D01*
X71380000Y-80630740D01*
X71346233Y-80549220D01*
X71193567Y-80320739D01*
X70999261Y-80126433D01*
X70770780Y-79973767D01*
X70516907Y-79868609D01*
X70247396Y-79815000D01*
X69972604Y-79815000D01*
X69703093Y-79868609D01*
X69449220Y-79973767D01*
X69220739Y-80126433D01*
X69026433Y-80320739D01*
X68873767Y-80549220D01*
X68768609Y-80803093D01*
X68715000Y-81072604D01*
X59130000Y-81072604D01*
X59130000Y-57264137D01*
X69325469Y-57264137D01*
X69392206Y-57504025D01*
X69640892Y-57620924D01*
X69907606Y-57687061D01*
X70182097Y-57699895D01*
X70453817Y-57658931D01*
X70712326Y-57565744D01*
X70827794Y-57504025D01*
X70894531Y-57264137D01*
X70110000Y-56479605D01*
X69325469Y-57264137D01*
X59130000Y-57264137D01*
X59130000Y-56372097D01*
X68710105Y-56372097D01*
X68751069Y-56643817D01*
X68844256Y-56902326D01*
X68905975Y-57017794D01*
X69145863Y-57084531D01*
X69930395Y-56300000D01*
X70289605Y-56300000D01*
X71074137Y-57084531D01*
X71314025Y-57017794D01*
X71379600Y-56878293D01*
X71413767Y-56960780D01*
X71566433Y-57189261D01*
X71760739Y-57383567D01*
X71989220Y-57536233D01*
X72243093Y-57641391D01*
X72512604Y-57695000D01*
X72787396Y-57695000D01*
X73056907Y-57641391D01*
X73310780Y-57536233D01*
X73539261Y-57383567D01*
X73733567Y-57189261D01*
X73886233Y-56960780D01*
X73920000Y-56879260D01*
X73953767Y-56960780D01*
X74106433Y-57189261D01*
X74300739Y-57383567D01*
X74529220Y-57536233D01*
X74783093Y-57641391D01*
X75052604Y-57695000D01*
X75327396Y-57695000D01*
X75596907Y-57641391D01*
X75850780Y-57536233D01*
X76079261Y-57383567D01*
X76273567Y-57189261D01*
X76426233Y-56960780D01*
X76460000Y-56879260D01*
X76493767Y-56960780D01*
X76646433Y-57189261D01*
X76840739Y-57383567D01*
X77069220Y-57536233D01*
X77323093Y-57641391D01*
X77592604Y-57695000D01*
X77867396Y-57695000D01*
X78136907Y-57641391D01*
X78390780Y-57536233D01*
X78619261Y-57383567D01*
X78813567Y-57189261D01*
X78966233Y-56960780D01*
X79000000Y-56879260D01*
X79033767Y-56960780D01*
X79186433Y-57189261D01*
X79380739Y-57383567D01*
X79609220Y-57536233D01*
X79863093Y-57641391D01*
X80132604Y-57695000D01*
X80407396Y-57695000D01*
X80676907Y-57641391D01*
X80930780Y-57536233D01*
X81159261Y-57383567D01*
X81353567Y-57189261D01*
X81506233Y-56960780D01*
X81540000Y-56879260D01*
X81573767Y-56960780D01*
X81726433Y-57189261D01*
X81920739Y-57383567D01*
X82048001Y-57468601D01*
X82048000Y-61502577D01*
X82044314Y-61540000D01*
X82048000Y-61577423D01*
X82048000Y-61577425D01*
X82059026Y-61689377D01*
X82102598Y-61833014D01*
X82102599Y-61833015D01*
X82173355Y-61965392D01*
X82212503Y-62013093D01*
X82268578Y-62081422D01*
X82297654Y-62105284D01*
X100104859Y-79912490D01*
X100075000Y-80062604D01*
X100075000Y-80337396D01*
X100128609Y-80606907D01*
X100233767Y-80860780D01*
X100386433Y-81089261D01*
X100580739Y-81283567D01*
X100809220Y-81436233D01*
X100890740Y-81470000D01*
X100809220Y-81503767D01*
X100580739Y-81656433D01*
X100386433Y-81850739D01*
X100233767Y-82079220D01*
X100128609Y-82333093D01*
X100075000Y-82602604D01*
X100075000Y-82877396D01*
X100128609Y-83146907D01*
X100233767Y-83400780D01*
X100386433Y-83629261D01*
X100580739Y-83823567D01*
X100809220Y-83976233D01*
X100890740Y-84010000D01*
X100809220Y-84043767D01*
X100580739Y-84196433D01*
X100386433Y-84390739D01*
X100233767Y-84619220D01*
X100128609Y-84873093D01*
X100075000Y-85142604D01*
X100075000Y-85417396D01*
X100128609Y-85686907D01*
X100233767Y-85940780D01*
X100386433Y-86169261D01*
X100580739Y-86363567D01*
X100809220Y-86516233D01*
X101063093Y-86621391D01*
X101332604Y-86675000D01*
X101607396Y-86675000D01*
X101876907Y-86621391D01*
X102130780Y-86516233D01*
X102359261Y-86363567D01*
X102553567Y-86169261D01*
X102706233Y-85940780D01*
X102811391Y-85686907D01*
X102865000Y-85417396D01*
X102865000Y-85142604D01*
X102811391Y-84873093D01*
X102706233Y-84619220D01*
X102553567Y-84390739D01*
X102359261Y-84196433D01*
X102130780Y-84043767D01*
X102049260Y-84010000D01*
X102130780Y-83976233D01*
X102359261Y-83823567D01*
X102553567Y-83629261D01*
X102706233Y-83400780D01*
X102811391Y-83146907D01*
X102865000Y-82877396D01*
X102865000Y-82602604D01*
X102811391Y-82333093D01*
X102706233Y-82079220D01*
X102553567Y-81850739D01*
X102359261Y-81656433D01*
X102130780Y-81503767D01*
X102049260Y-81470000D01*
X102130780Y-81436233D01*
X102359261Y-81283567D01*
X102553567Y-81089261D01*
X102706233Y-80860780D01*
X102811391Y-80606907D01*
X102865000Y-80337396D01*
X102865000Y-80062604D01*
X102811391Y-79793093D01*
X102706233Y-79539220D01*
X102553567Y-79310739D01*
X102359261Y-79116433D01*
X102130780Y-78963767D01*
X102049260Y-78930000D01*
X102130780Y-78896233D01*
X102359261Y-78743567D01*
X102553567Y-78549261D01*
X102706233Y-78320780D01*
X102811391Y-78066907D01*
X102865000Y-77797396D01*
X102865000Y-77522604D01*
X115315000Y-77522604D01*
X115315000Y-77797396D01*
X115368609Y-78066907D01*
X115473767Y-78320780D01*
X115626433Y-78549261D01*
X115820739Y-78743567D01*
X116049220Y-78896233D01*
X116130740Y-78930000D01*
X116049220Y-78963767D01*
X115820739Y-79116433D01*
X115626433Y-79310739D01*
X115473767Y-79539220D01*
X115368609Y-79793093D01*
X115315000Y-80062604D01*
X115315000Y-80337396D01*
X115368609Y-80606907D01*
X115473767Y-80860780D01*
X115626433Y-81089261D01*
X115820739Y-81283567D01*
X116049220Y-81436233D01*
X116130740Y-81470000D01*
X116049220Y-81503767D01*
X115820739Y-81656433D01*
X115626433Y-81850739D01*
X115473767Y-82079220D01*
X115368609Y-82333093D01*
X115315000Y-82602604D01*
X115315000Y-82877396D01*
X115368609Y-83146907D01*
X115473767Y-83400780D01*
X115626433Y-83629261D01*
X115820739Y-83823567D01*
X116049220Y-83976233D01*
X116130740Y-84010000D01*
X116049220Y-84043767D01*
X115820739Y-84196433D01*
X115626433Y-84390739D01*
X115473767Y-84619220D01*
X115368609Y-84873093D01*
X115315000Y-85142604D01*
X115315000Y-85417396D01*
X115368609Y-85686907D01*
X115473767Y-85940780D01*
X115626433Y-86169261D01*
X115820739Y-86363567D01*
X116049220Y-86516233D01*
X116303093Y-86621391D01*
X116572604Y-86675000D01*
X116847396Y-86675000D01*
X117116907Y-86621391D01*
X117370780Y-86516233D01*
X117599261Y-86363567D01*
X117793567Y-86169261D01*
X117946233Y-85940780D01*
X118051391Y-85686907D01*
X118105000Y-85417396D01*
X118105000Y-85142604D01*
X118051391Y-84873093D01*
X117946233Y-84619220D01*
X117793567Y-84390739D01*
X117599261Y-84196433D01*
X117370780Y-84043767D01*
X117289260Y-84010000D01*
X117370780Y-83976233D01*
X117599261Y-83823567D01*
X117793567Y-83629261D01*
X117946233Y-83400780D01*
X118051391Y-83146907D01*
X118105000Y-82877396D01*
X118105000Y-82602604D01*
X118051391Y-82333093D01*
X117946233Y-82079220D01*
X117793567Y-81850739D01*
X117599261Y-81656433D01*
X117370780Y-81503767D01*
X117289260Y-81470000D01*
X117370780Y-81436233D01*
X117599261Y-81283567D01*
X117793567Y-81089261D01*
X117946233Y-80860780D01*
X118051391Y-80606907D01*
X118105000Y-80337396D01*
X118105000Y-80062604D01*
X118051391Y-79793093D01*
X117946233Y-79539220D01*
X117793567Y-79310739D01*
X117599261Y-79116433D01*
X117370780Y-78963767D01*
X117289260Y-78930000D01*
X117370780Y-78896233D01*
X117599261Y-78743567D01*
X117793567Y-78549261D01*
X117946233Y-78320780D01*
X118051391Y-78066907D01*
X118105000Y-77797396D01*
X118105000Y-77522604D01*
X118077154Y-77382609D01*
X128515000Y-77382609D01*
X128515000Y-77657401D01*
X128568609Y-77926912D01*
X128673767Y-78180785D01*
X128826433Y-78409266D01*
X129020739Y-78603572D01*
X129249220Y-78756238D01*
X129503093Y-78861396D01*
X129772604Y-78915005D01*
X130047396Y-78915005D01*
X130316907Y-78861396D01*
X130570780Y-78756238D01*
X130799261Y-78603572D01*
X130993567Y-78409266D01*
X131146233Y-78180785D01*
X131180000Y-78099265D01*
X131213767Y-78180785D01*
X131366433Y-78409266D01*
X131560739Y-78603572D01*
X131789220Y-78756238D01*
X132043093Y-78861396D01*
X132312604Y-78915005D01*
X132587396Y-78915005D01*
X132856907Y-78861396D01*
X133110780Y-78756238D01*
X133339261Y-78603572D01*
X133533567Y-78409266D01*
X133686233Y-78180785D01*
X133720000Y-78099265D01*
X133753767Y-78180785D01*
X133906433Y-78409266D01*
X134100739Y-78603572D01*
X134329220Y-78756238D01*
X134583093Y-78861396D01*
X134852604Y-78915005D01*
X135127396Y-78915005D01*
X135396907Y-78861396D01*
X135650780Y-78756238D01*
X135879261Y-78603572D01*
X136073567Y-78409266D01*
X136226233Y-78180785D01*
X136260000Y-78099265D01*
X136293767Y-78180785D01*
X136446433Y-78409266D01*
X136640739Y-78603572D01*
X136869220Y-78756238D01*
X137123093Y-78861396D01*
X137392604Y-78915005D01*
X137667396Y-78915005D01*
X137936907Y-78861396D01*
X138190780Y-78756238D01*
X138419261Y-78603572D01*
X138613567Y-78409266D01*
X138766233Y-78180785D01*
X138800000Y-78099265D01*
X138833767Y-78180785D01*
X138986433Y-78409266D01*
X139180739Y-78603572D01*
X139409220Y-78756238D01*
X139663093Y-78861396D01*
X139932604Y-78915005D01*
X140207396Y-78915005D01*
X140476907Y-78861396D01*
X140730780Y-78756238D01*
X140959261Y-78603572D01*
X141153567Y-78409266D01*
X141306233Y-78180785D01*
X141340000Y-78099265D01*
X141373767Y-78180785D01*
X141526433Y-78409266D01*
X141720739Y-78603572D01*
X141949220Y-78756238D01*
X142203093Y-78861396D01*
X142472604Y-78915005D01*
X142747396Y-78915005D01*
X143016907Y-78861396D01*
X143270780Y-78756238D01*
X143499261Y-78603572D01*
X143693567Y-78409266D01*
X143755526Y-78316538D01*
X143764188Y-78404487D01*
X143800498Y-78524185D01*
X143859463Y-78634499D01*
X143938815Y-78731190D01*
X144035506Y-78810542D01*
X144145820Y-78869507D01*
X144265518Y-78905817D01*
X144390000Y-78918077D01*
X145910000Y-78918077D01*
X146034482Y-78905817D01*
X146154180Y-78869507D01*
X146264494Y-78810542D01*
X146361185Y-78731190D01*
X146440537Y-78634499D01*
X146499502Y-78524185D01*
X146535812Y-78404487D01*
X146548072Y-78280005D01*
X146548072Y-76760005D01*
X146535812Y-76635523D01*
X146499502Y-76515825D01*
X146440537Y-76405511D01*
X146361185Y-76308820D01*
X146264494Y-76229468D01*
X146154180Y-76170503D01*
X146034482Y-76134193D01*
X145910000Y-76121933D01*
X144390000Y-76121933D01*
X144265518Y-76134193D01*
X144145820Y-76170503D01*
X144035506Y-76229468D01*
X143938815Y-76308820D01*
X143859463Y-76405511D01*
X143800498Y-76515825D01*
X143764188Y-76635523D01*
X143755526Y-76723472D01*
X143693567Y-76630744D01*
X143499261Y-76436438D01*
X143270780Y-76283772D01*
X143016907Y-76178614D01*
X142747396Y-76125005D01*
X142472604Y-76125005D01*
X142203093Y-76178614D01*
X141949220Y-76283772D01*
X141720739Y-76436438D01*
X141526433Y-76630744D01*
X141373767Y-76859225D01*
X141340000Y-76940745D01*
X141306233Y-76859225D01*
X141153567Y-76630744D01*
X140959261Y-76436438D01*
X140730780Y-76283772D01*
X140476907Y-76178614D01*
X140207396Y-76125005D01*
X139932604Y-76125005D01*
X139663093Y-76178614D01*
X139409220Y-76283772D01*
X139180739Y-76436438D01*
X138986433Y-76630744D01*
X138833767Y-76859225D01*
X138800000Y-76940745D01*
X138766233Y-76859225D01*
X138613567Y-76630744D01*
X138419261Y-76436438D01*
X138190780Y-76283772D01*
X137936907Y-76178614D01*
X137667396Y-76125005D01*
X137392604Y-76125005D01*
X137123093Y-76178614D01*
X136869220Y-76283772D01*
X136640739Y-76436438D01*
X136446433Y-76630744D01*
X136293767Y-76859225D01*
X136260000Y-76940745D01*
X136226233Y-76859225D01*
X136073567Y-76630744D01*
X135879261Y-76436438D01*
X135650780Y-76283772D01*
X135396907Y-76178614D01*
X135127396Y-76125005D01*
X134852604Y-76125005D01*
X134583093Y-76178614D01*
X134329220Y-76283772D01*
X134100739Y-76436438D01*
X133906433Y-76630744D01*
X133753767Y-76859225D01*
X133720000Y-76940745D01*
X133686233Y-76859225D01*
X133533567Y-76630744D01*
X133339261Y-76436438D01*
X133110780Y-76283772D01*
X132856907Y-76178614D01*
X132587396Y-76125005D01*
X132312604Y-76125005D01*
X132043093Y-76178614D01*
X131789220Y-76283772D01*
X131560739Y-76436438D01*
X131366433Y-76630744D01*
X131213767Y-76859225D01*
X131180000Y-76940745D01*
X131146233Y-76859225D01*
X130993567Y-76630744D01*
X130799261Y-76436438D01*
X130570780Y-76283772D01*
X130316907Y-76178614D01*
X130047396Y-76125005D01*
X129772604Y-76125005D01*
X129503093Y-76178614D01*
X129249220Y-76283772D01*
X129020739Y-76436438D01*
X128826433Y-76630744D01*
X128673767Y-76859225D01*
X128568609Y-77113098D01*
X128515000Y-77382609D01*
X118077154Y-77382609D01*
X118051391Y-77253093D01*
X117946233Y-76999220D01*
X117793567Y-76770739D01*
X117599261Y-76576433D01*
X117370780Y-76423767D01*
X117294499Y-76392170D01*
X117312326Y-76385744D01*
X117427794Y-76324025D01*
X117494531Y-76084137D01*
X116710000Y-75299605D01*
X115925469Y-76084137D01*
X115992206Y-76324025D01*
X116131707Y-76389600D01*
X116049220Y-76423767D01*
X115820739Y-76576433D01*
X115626433Y-76770739D01*
X115473767Y-76999220D01*
X115368609Y-77253093D01*
X115315000Y-77522604D01*
X102865000Y-77522604D01*
X102811391Y-77253093D01*
X102706233Y-76999220D01*
X102553567Y-76770739D01*
X102359261Y-76576433D01*
X102130780Y-76423767D01*
X102049260Y-76390000D01*
X102130780Y-76356233D01*
X102359261Y-76203567D01*
X102553567Y-76009261D01*
X102706233Y-75780780D01*
X102811391Y-75526907D01*
X102865000Y-75257396D01*
X102865000Y-75192097D01*
X115310105Y-75192097D01*
X115351069Y-75463817D01*
X115444256Y-75722326D01*
X115505975Y-75837794D01*
X115745863Y-75904531D01*
X116530395Y-75120000D01*
X116889605Y-75120000D01*
X117674137Y-75904531D01*
X117914025Y-75837794D01*
X118030924Y-75589108D01*
X118097061Y-75322394D01*
X118109895Y-75047903D01*
X118068931Y-74776183D01*
X117975744Y-74517674D01*
X117914025Y-74402206D01*
X117674137Y-74335469D01*
X116889605Y-75120000D01*
X116530395Y-75120000D01*
X115745863Y-74335469D01*
X115505975Y-74402206D01*
X115389076Y-74650892D01*
X115322939Y-74917606D01*
X115310105Y-75192097D01*
X102865000Y-75192097D01*
X102865000Y-74982604D01*
X102811391Y-74713093D01*
X102706233Y-74459220D01*
X102553567Y-74230739D01*
X102359261Y-74036433D01*
X102130780Y-73883767D01*
X102049260Y-73850000D01*
X102130780Y-73816233D01*
X102359261Y-73663567D01*
X102553567Y-73469261D01*
X102706233Y-73240780D01*
X102811391Y-72986907D01*
X102865000Y-72717396D01*
X102865000Y-72442604D01*
X102811391Y-72173093D01*
X102706233Y-71919220D01*
X102553567Y-71690739D01*
X102359261Y-71496433D01*
X102130780Y-71343767D01*
X102049260Y-71310000D01*
X102130780Y-71276233D01*
X102359261Y-71123567D01*
X102553567Y-70929261D01*
X102706233Y-70700780D01*
X102811391Y-70446907D01*
X102865000Y-70177396D01*
X102865000Y-69902604D01*
X102811391Y-69633093D01*
X102706233Y-69379220D01*
X102553567Y-69150739D01*
X102359261Y-68956433D01*
X102130780Y-68803767D01*
X102049260Y-68770000D01*
X102130780Y-68736233D01*
X102359261Y-68583567D01*
X102553567Y-68389261D01*
X102706233Y-68160780D01*
X102811391Y-67906907D01*
X102865000Y-67637396D01*
X102865000Y-67362604D01*
X102811391Y-67093093D01*
X102706233Y-66839220D01*
X102553567Y-66610739D01*
X102359261Y-66416433D01*
X102130780Y-66263767D01*
X102049260Y-66230000D01*
X102130780Y-66196233D01*
X102359261Y-66043567D01*
X102553567Y-65849261D01*
X102706233Y-65620780D01*
X102811391Y-65366907D01*
X102865000Y-65097396D01*
X102865000Y-64822604D01*
X102811391Y-64553093D01*
X102706233Y-64299220D01*
X102553567Y-64070739D01*
X102359261Y-63876433D01*
X102130780Y-63723767D01*
X102049260Y-63690000D01*
X102130780Y-63656233D01*
X102359261Y-63503567D01*
X102553567Y-63309261D01*
X102706233Y-63080780D01*
X102811391Y-62826907D01*
X102865000Y-62557396D01*
X102865000Y-62282604D01*
X102811391Y-62013093D01*
X102706233Y-61759220D01*
X102553567Y-61530739D01*
X102359261Y-61336433D01*
X102130780Y-61183767D01*
X102049260Y-61150000D01*
X102130780Y-61116233D01*
X102359261Y-60963567D01*
X102553567Y-60769261D01*
X102706233Y-60540780D01*
X102811391Y-60286907D01*
X102865000Y-60017396D01*
X102865000Y-59742604D01*
X102811391Y-59473093D01*
X102706233Y-59219220D01*
X102553567Y-58990739D01*
X102359261Y-58796433D01*
X102130780Y-58643767D01*
X102049260Y-58610000D01*
X102130780Y-58576233D01*
X102359261Y-58423567D01*
X102553567Y-58229261D01*
X102706233Y-58000780D01*
X102811391Y-57746907D01*
X102865000Y-57477396D01*
X102865000Y-57202604D01*
X102811391Y-56933093D01*
X102706233Y-56679220D01*
X102553567Y-56450739D01*
X102359261Y-56256433D01*
X102130780Y-56103767D01*
X102049260Y-56070000D01*
X102130780Y-56036233D01*
X102359261Y-55883567D01*
X102553567Y-55689261D01*
X102706233Y-55460780D01*
X102811391Y-55206907D01*
X102865000Y-54937396D01*
X102865000Y-54662604D01*
X102811391Y-54393093D01*
X102706233Y-54139220D01*
X102553567Y-53910739D01*
X102359261Y-53716433D01*
X102266533Y-53654474D01*
X102354482Y-53645812D01*
X102474180Y-53609502D01*
X102584494Y-53550537D01*
X102681185Y-53471185D01*
X102760537Y-53374494D01*
X102819502Y-53264180D01*
X102855812Y-53144482D01*
X102868072Y-53020000D01*
X102868072Y-51500000D01*
X115311928Y-51500000D01*
X115311928Y-53020000D01*
X115324188Y-53144482D01*
X115360498Y-53264180D01*
X115419463Y-53374494D01*
X115498815Y-53471185D01*
X115595506Y-53550537D01*
X115705820Y-53609502D01*
X115825518Y-53645812D01*
X115913467Y-53654474D01*
X115820739Y-53716433D01*
X115626433Y-53910739D01*
X115473767Y-54139220D01*
X115368609Y-54393093D01*
X115315000Y-54662604D01*
X115315000Y-54937396D01*
X115368609Y-55206907D01*
X115473767Y-55460780D01*
X115626433Y-55689261D01*
X115820739Y-55883567D01*
X116049220Y-56036233D01*
X116130740Y-56070000D01*
X116049220Y-56103767D01*
X115820739Y-56256433D01*
X115626433Y-56450739D01*
X115473767Y-56679220D01*
X115368609Y-56933093D01*
X115315000Y-57202604D01*
X115315000Y-57477396D01*
X115368609Y-57746907D01*
X115473767Y-58000780D01*
X115626433Y-58229261D01*
X115820739Y-58423567D01*
X116049220Y-58576233D01*
X116130740Y-58610000D01*
X116049220Y-58643767D01*
X115820739Y-58796433D01*
X115626433Y-58990739D01*
X115473767Y-59219220D01*
X115368609Y-59473093D01*
X115315000Y-59742604D01*
X115315000Y-60017396D01*
X115368609Y-60286907D01*
X115473767Y-60540780D01*
X115626433Y-60769261D01*
X115820739Y-60963567D01*
X116049220Y-61116233D01*
X116130740Y-61150000D01*
X116049220Y-61183767D01*
X115820739Y-61336433D01*
X115626433Y-61530739D01*
X115473767Y-61759220D01*
X115368609Y-62013093D01*
X115315000Y-62282604D01*
X115315000Y-62557396D01*
X115368609Y-62826907D01*
X115473767Y-63080780D01*
X115626433Y-63309261D01*
X115820739Y-63503567D01*
X116049220Y-63656233D01*
X116130740Y-63690000D01*
X116049220Y-63723767D01*
X115820739Y-63876433D01*
X115626433Y-64070739D01*
X115473767Y-64299220D01*
X115368609Y-64553093D01*
X115315000Y-64822604D01*
X115315000Y-65097396D01*
X115368609Y-65366907D01*
X115473767Y-65620780D01*
X115626433Y-65849261D01*
X115820739Y-66043567D01*
X116049220Y-66196233D01*
X116130740Y-66230000D01*
X116049220Y-66263767D01*
X115820739Y-66416433D01*
X115626433Y-66610739D01*
X115473767Y-66839220D01*
X115368609Y-67093093D01*
X115315000Y-67362604D01*
X115315000Y-67637396D01*
X115368609Y-67906907D01*
X115473767Y-68160780D01*
X115626433Y-68389261D01*
X115820739Y-68583567D01*
X116049220Y-68736233D01*
X116130740Y-68770000D01*
X116049220Y-68803767D01*
X115820739Y-68956433D01*
X115626433Y-69150739D01*
X115473767Y-69379220D01*
X115368609Y-69633093D01*
X115315000Y-69902604D01*
X115315000Y-70177396D01*
X115368609Y-70446907D01*
X115473767Y-70700780D01*
X115626433Y-70929261D01*
X115820739Y-71123567D01*
X116049220Y-71276233D01*
X116130740Y-71310000D01*
X116049220Y-71343767D01*
X115820739Y-71496433D01*
X115626433Y-71690739D01*
X115473767Y-71919220D01*
X115368609Y-72173093D01*
X115315000Y-72442604D01*
X115315000Y-72717396D01*
X115368609Y-72986907D01*
X115473767Y-73240780D01*
X115626433Y-73469261D01*
X115820739Y-73663567D01*
X116049220Y-73816233D01*
X116125501Y-73847830D01*
X116107674Y-73854256D01*
X115992206Y-73915975D01*
X115925469Y-74155863D01*
X116710000Y-74940395D01*
X117494531Y-74155863D01*
X117427794Y-73915975D01*
X117288293Y-73850400D01*
X117370780Y-73816233D01*
X117599261Y-73663567D01*
X117793567Y-73469261D01*
X117946233Y-73240780D01*
X118051391Y-72986907D01*
X118105000Y-72717396D01*
X118105000Y-72442604D01*
X118051391Y-72173093D01*
X117946233Y-71919220D01*
X117793567Y-71690739D01*
X117599261Y-71496433D01*
X117370780Y-71343767D01*
X117289260Y-71310000D01*
X117370780Y-71276233D01*
X117599261Y-71123567D01*
X117793567Y-70929261D01*
X117946233Y-70700780D01*
X118051391Y-70446907D01*
X118105000Y-70177396D01*
X118105000Y-69902604D01*
X118051391Y-69633093D01*
X117946233Y-69379220D01*
X117793567Y-69150739D01*
X117599261Y-68956433D01*
X117370780Y-68803767D01*
X117289260Y-68770000D01*
X117370780Y-68736233D01*
X117599261Y-68583567D01*
X117793567Y-68389261D01*
X117946233Y-68160780D01*
X118051391Y-67906907D01*
X118105000Y-67637396D01*
X118105000Y-67362604D01*
X118051391Y-67093093D01*
X117946233Y-66839220D01*
X117793567Y-66610739D01*
X117599261Y-66416433D01*
X117370780Y-66263767D01*
X117289260Y-66230000D01*
X117370780Y-66196233D01*
X117599261Y-66043567D01*
X117793567Y-65849261D01*
X117946233Y-65620780D01*
X118051391Y-65366907D01*
X118105000Y-65097396D01*
X118105000Y-64822604D01*
X118051391Y-64553093D01*
X117946233Y-64299220D01*
X117793567Y-64070739D01*
X117599261Y-63876433D01*
X117370780Y-63723767D01*
X117289260Y-63690000D01*
X117370780Y-63656233D01*
X117599261Y-63503567D01*
X117793567Y-63309261D01*
X117946233Y-63080780D01*
X118051391Y-62826907D01*
X118105000Y-62557396D01*
X118105000Y-62282604D01*
X118051391Y-62013093D01*
X117946233Y-61759220D01*
X117793567Y-61530739D01*
X117599261Y-61336433D01*
X117370780Y-61183767D01*
X117289260Y-61150000D01*
X117370780Y-61116233D01*
X117568468Y-60984142D01*
X130855469Y-60984142D01*
X130922206Y-61224030D01*
X131170892Y-61340929D01*
X131437606Y-61407066D01*
X131712097Y-61419900D01*
X131983817Y-61378936D01*
X132242326Y-61285749D01*
X132357794Y-61224030D01*
X132424531Y-60984142D01*
X131640000Y-60199610D01*
X130855469Y-60984142D01*
X117568468Y-60984142D01*
X117599261Y-60963567D01*
X117793567Y-60769261D01*
X117946233Y-60540780D01*
X118051391Y-60286907D01*
X118090140Y-60092102D01*
X130240105Y-60092102D01*
X130281069Y-60363822D01*
X130374256Y-60622331D01*
X130435975Y-60737799D01*
X130675863Y-60804536D01*
X131460395Y-60020005D01*
X131819605Y-60020005D01*
X132604137Y-60804536D01*
X132844025Y-60737799D01*
X132909600Y-60598298D01*
X132943767Y-60680785D01*
X133096433Y-60909266D01*
X133290739Y-61103572D01*
X133519220Y-61256238D01*
X133773093Y-61361396D01*
X134042604Y-61415005D01*
X134317396Y-61415005D01*
X134586907Y-61361396D01*
X134840780Y-61256238D01*
X135069261Y-61103572D01*
X135263567Y-60909266D01*
X135416233Y-60680785D01*
X135450000Y-60599265D01*
X135483767Y-60680785D01*
X135636433Y-60909266D01*
X135830739Y-61103572D01*
X136059220Y-61256238D01*
X136313093Y-61361396D01*
X136582604Y-61415005D01*
X136857396Y-61415005D01*
X137126907Y-61361396D01*
X137380780Y-61256238D01*
X137609261Y-61103572D01*
X137803567Y-60909266D01*
X137956233Y-60680785D01*
X137990000Y-60599265D01*
X138023767Y-60680785D01*
X138176433Y-60909266D01*
X138370739Y-61103572D01*
X138599220Y-61256238D01*
X138853093Y-61361396D01*
X139122604Y-61415005D01*
X139397396Y-61415005D01*
X139666907Y-61361396D01*
X139920780Y-61256238D01*
X140149261Y-61103572D01*
X140343567Y-60909266D01*
X140496233Y-60680785D01*
X140530000Y-60599265D01*
X140563767Y-60680785D01*
X140716433Y-60909266D01*
X140910739Y-61103572D01*
X141139220Y-61256238D01*
X141393093Y-61361396D01*
X141662604Y-61415005D01*
X141937396Y-61415005D01*
X142206907Y-61361396D01*
X142460780Y-61256238D01*
X142689261Y-61103572D01*
X142883567Y-60909266D01*
X143036233Y-60680785D01*
X143070000Y-60599265D01*
X143103767Y-60680785D01*
X143256433Y-60909266D01*
X143450739Y-61103572D01*
X143679220Y-61256238D01*
X143933093Y-61361396D01*
X144202604Y-61415005D01*
X144477396Y-61415005D01*
X144746907Y-61361396D01*
X145000780Y-61256238D01*
X145229261Y-61103572D01*
X145423567Y-60909266D01*
X145485526Y-60816538D01*
X145494188Y-60904487D01*
X145530498Y-61024185D01*
X145589463Y-61134499D01*
X145668815Y-61231190D01*
X145765506Y-61310542D01*
X145875820Y-61369507D01*
X145995518Y-61405817D01*
X146120000Y-61418077D01*
X147640000Y-61418077D01*
X147764482Y-61405817D01*
X147884180Y-61369507D01*
X147994494Y-61310542D01*
X148091185Y-61231190D01*
X148170537Y-61134499D01*
X148229502Y-61024185D01*
X148265812Y-60904487D01*
X148278072Y-60780005D01*
X148278072Y-59260005D01*
X148265812Y-59135523D01*
X148229502Y-59015825D01*
X148170537Y-58905511D01*
X148091185Y-58808820D01*
X147994494Y-58729468D01*
X147884180Y-58670503D01*
X147764482Y-58634193D01*
X147640000Y-58621933D01*
X146120000Y-58621933D01*
X145995518Y-58634193D01*
X145875820Y-58670503D01*
X145765506Y-58729468D01*
X145668815Y-58808820D01*
X145589463Y-58905511D01*
X145530498Y-59015825D01*
X145494188Y-59135523D01*
X145485526Y-59223472D01*
X145423567Y-59130744D01*
X145229261Y-58936438D01*
X145000780Y-58783772D01*
X144746907Y-58678614D01*
X144477396Y-58625005D01*
X144202604Y-58625005D01*
X143933093Y-58678614D01*
X143679220Y-58783772D01*
X143450739Y-58936438D01*
X143256433Y-59130744D01*
X143103767Y-59359225D01*
X143070000Y-59440745D01*
X143036233Y-59359225D01*
X142883567Y-59130744D01*
X142689261Y-58936438D01*
X142460780Y-58783772D01*
X142206907Y-58678614D01*
X141937396Y-58625005D01*
X141662604Y-58625005D01*
X141393093Y-58678614D01*
X141139220Y-58783772D01*
X140910739Y-58936438D01*
X140716433Y-59130744D01*
X140563767Y-59359225D01*
X140530000Y-59440745D01*
X140496233Y-59359225D01*
X140343567Y-59130744D01*
X140149261Y-58936438D01*
X139920780Y-58783772D01*
X139666907Y-58678614D01*
X139397396Y-58625005D01*
X139122604Y-58625005D01*
X138853093Y-58678614D01*
X138599220Y-58783772D01*
X138370739Y-58936438D01*
X138176433Y-59130744D01*
X138023767Y-59359225D01*
X137990000Y-59440745D01*
X137956233Y-59359225D01*
X137803567Y-59130744D01*
X137609261Y-58936438D01*
X137380780Y-58783772D01*
X137126907Y-58678614D01*
X136857396Y-58625005D01*
X136582604Y-58625005D01*
X136313093Y-58678614D01*
X136059220Y-58783772D01*
X135830739Y-58936438D01*
X135636433Y-59130744D01*
X135483767Y-59359225D01*
X135450000Y-59440745D01*
X135416233Y-59359225D01*
X135263567Y-59130744D01*
X135069261Y-58936438D01*
X134840780Y-58783772D01*
X134586907Y-58678614D01*
X134317396Y-58625005D01*
X134042604Y-58625005D01*
X133773093Y-58678614D01*
X133519220Y-58783772D01*
X133290739Y-58936438D01*
X133096433Y-59130744D01*
X132943767Y-59359225D01*
X132912170Y-59435506D01*
X132905744Y-59417679D01*
X132844025Y-59302211D01*
X132604137Y-59235474D01*
X131819605Y-60020005D01*
X131460395Y-60020005D01*
X130675863Y-59235474D01*
X130435975Y-59302211D01*
X130319076Y-59550897D01*
X130252939Y-59817611D01*
X130240105Y-60092102D01*
X118090140Y-60092102D01*
X118105000Y-60017396D01*
X118105000Y-59742604D01*
X118051391Y-59473093D01*
X117946233Y-59219220D01*
X117837085Y-59055868D01*
X130855469Y-59055868D01*
X131640000Y-59840400D01*
X132424531Y-59055868D01*
X132357794Y-58815980D01*
X132109108Y-58699081D01*
X131842394Y-58632944D01*
X131567903Y-58620110D01*
X131296183Y-58661074D01*
X131037674Y-58754261D01*
X130922206Y-58815980D01*
X130855469Y-59055868D01*
X117837085Y-59055868D01*
X117793567Y-58990739D01*
X117599261Y-58796433D01*
X117370780Y-58643767D01*
X117289260Y-58610000D01*
X117370780Y-58576233D01*
X117599261Y-58423567D01*
X117793567Y-58229261D01*
X117946233Y-58000780D01*
X118051391Y-57746907D01*
X118105000Y-57477396D01*
X118105000Y-57202604D01*
X118051391Y-56933093D01*
X117946233Y-56679220D01*
X117793567Y-56450739D01*
X117599261Y-56256433D01*
X117370780Y-56103767D01*
X117289260Y-56070000D01*
X117370780Y-56036233D01*
X117599261Y-55883567D01*
X117793567Y-55689261D01*
X117946233Y-55460780D01*
X118051391Y-55206907D01*
X118105000Y-54937396D01*
X118105000Y-54662604D01*
X118051391Y-54393093D01*
X117946233Y-54139220D01*
X117793567Y-53910739D01*
X117599261Y-53716433D01*
X117506533Y-53654474D01*
X117594482Y-53645812D01*
X117714180Y-53609502D01*
X117824494Y-53550537D01*
X117921185Y-53471185D01*
X118000537Y-53374494D01*
X118059502Y-53264180D01*
X118095812Y-53144482D01*
X118108072Y-53020000D01*
X118108072Y-51500000D01*
X118095812Y-51375518D01*
X118059502Y-51255820D01*
X118000537Y-51145506D01*
X117921185Y-51048815D01*
X117824494Y-50969463D01*
X117714180Y-50910498D01*
X117594482Y-50874188D01*
X117470000Y-50861928D01*
X115950000Y-50861928D01*
X115825518Y-50874188D01*
X115705820Y-50910498D01*
X115595506Y-50969463D01*
X115498815Y-51048815D01*
X115419463Y-51145506D01*
X115360498Y-51255820D01*
X115324188Y-51375518D01*
X115311928Y-51500000D01*
X102868072Y-51500000D01*
X102855812Y-51375518D01*
X102819502Y-51255820D01*
X102760537Y-51145506D01*
X102681185Y-51048815D01*
X102584494Y-50969463D01*
X102474180Y-50910498D01*
X102354482Y-50874188D01*
X102230000Y-50861928D01*
X100710000Y-50861928D01*
X100585518Y-50874188D01*
X100465820Y-50910498D01*
X100355506Y-50969463D01*
X100258815Y-51048815D01*
X100179463Y-51145506D01*
X100120498Y-51255820D01*
X100084188Y-51375518D01*
X100071928Y-51500000D01*
X100071928Y-53020000D01*
X100084188Y-53144482D01*
X100120498Y-53264180D01*
X100179463Y-53374494D01*
X100258815Y-53471185D01*
X100355506Y-53550537D01*
X100465820Y-53609502D01*
X100585518Y-53645812D01*
X100673467Y-53654474D01*
X100580739Y-53716433D01*
X100386433Y-53910739D01*
X100233767Y-54139220D01*
X100128609Y-54393093D01*
X100075000Y-54662604D01*
X100075000Y-54937396D01*
X100128609Y-55206907D01*
X100233767Y-55460780D01*
X100386433Y-55689261D01*
X100580739Y-55883567D01*
X100809220Y-56036233D01*
X100890740Y-56070000D01*
X100809220Y-56103767D01*
X100580739Y-56256433D01*
X100386433Y-56450739D01*
X100233767Y-56679220D01*
X100128609Y-56933093D01*
X100075000Y-57202604D01*
X100075000Y-57477396D01*
X100128609Y-57746907D01*
X100233767Y-58000780D01*
X100386433Y-58229261D01*
X100580739Y-58423567D01*
X100809220Y-58576233D01*
X100890740Y-58610000D01*
X100809220Y-58643767D01*
X100580739Y-58796433D01*
X100386433Y-58990739D01*
X100233767Y-59219220D01*
X100128609Y-59473093D01*
X100075000Y-59742604D01*
X100075000Y-60017396D01*
X100128609Y-60286907D01*
X100233767Y-60540780D01*
X100386433Y-60769261D01*
X100580739Y-60963567D01*
X100809220Y-61116233D01*
X100890740Y-61150000D01*
X100809220Y-61183767D01*
X100580739Y-61336433D01*
X100386433Y-61530739D01*
X100233767Y-61759220D01*
X100128609Y-62013093D01*
X100075000Y-62282604D01*
X100075000Y-62557396D01*
X100128609Y-62826907D01*
X100233767Y-63080780D01*
X100386433Y-63309261D01*
X100580739Y-63503567D01*
X100809220Y-63656233D01*
X100890740Y-63690000D01*
X100809220Y-63723767D01*
X100580739Y-63876433D01*
X100386433Y-64070739D01*
X100233767Y-64299220D01*
X100128609Y-64553093D01*
X100075000Y-64822604D01*
X100075000Y-65097396D01*
X100128609Y-65366907D01*
X100233767Y-65620780D01*
X100386433Y-65849261D01*
X100580739Y-66043567D01*
X100809220Y-66196233D01*
X100890740Y-66230000D01*
X100809220Y-66263767D01*
X100580739Y-66416433D01*
X100386433Y-66610739D01*
X100233767Y-66839220D01*
X100128609Y-67093093D01*
X100075000Y-67362604D01*
X100075000Y-67637396D01*
X100128609Y-67906907D01*
X100233767Y-68160780D01*
X100386433Y-68389261D01*
X100580739Y-68583567D01*
X100809220Y-68736233D01*
X100890740Y-68770000D01*
X100809220Y-68803767D01*
X100580739Y-68956433D01*
X100386433Y-69150739D01*
X100233767Y-69379220D01*
X100128609Y-69633093D01*
X100075000Y-69902604D01*
X100075000Y-70177396D01*
X100128609Y-70446907D01*
X100233767Y-70700780D01*
X100386433Y-70929261D01*
X100580739Y-71123567D01*
X100809220Y-71276233D01*
X100890740Y-71310000D01*
X100809220Y-71343767D01*
X100580739Y-71496433D01*
X100386433Y-71690739D01*
X100233767Y-71919220D01*
X100128609Y-72173093D01*
X100075000Y-72442604D01*
X100075000Y-72717396D01*
X100128609Y-72986907D01*
X100233767Y-73240780D01*
X100386433Y-73469261D01*
X100580739Y-73663567D01*
X100809220Y-73816233D01*
X100890740Y-73850000D01*
X100809220Y-73883767D01*
X100580739Y-74036433D01*
X100386433Y-74230739D01*
X100233767Y-74459220D01*
X100128609Y-74713093D01*
X100075000Y-74982604D01*
X100075000Y-75257396D01*
X100128609Y-75526907D01*
X100233767Y-75780780D01*
X100386433Y-76009261D01*
X100580739Y-76203567D01*
X100809220Y-76356233D01*
X100890740Y-76390000D01*
X100809220Y-76423767D01*
X100580739Y-76576433D01*
X100386433Y-76770739D01*
X100233767Y-76999220D01*
X100128609Y-77253093D01*
X100075000Y-77522604D01*
X100075000Y-77727369D01*
X83572000Y-61224370D01*
X83572000Y-57468600D01*
X83699261Y-57383567D01*
X83893567Y-57189261D01*
X83955526Y-57096533D01*
X83964188Y-57184482D01*
X84000498Y-57304180D01*
X84059463Y-57414494D01*
X84138815Y-57511185D01*
X84235506Y-57590537D01*
X84345820Y-57649502D01*
X84465518Y-57685812D01*
X84590000Y-57698072D01*
X86110000Y-57698072D01*
X86234482Y-57685812D01*
X86354180Y-57649502D01*
X86464494Y-57590537D01*
X86561185Y-57511185D01*
X86640537Y-57414494D01*
X86699502Y-57304180D01*
X86735812Y-57184482D01*
X86748072Y-57060000D01*
X86748072Y-55540000D01*
X86735812Y-55415518D01*
X86699502Y-55295820D01*
X86640537Y-55185506D01*
X86561185Y-55088815D01*
X86464494Y-55009463D01*
X86354180Y-54950498D01*
X86234482Y-54914188D01*
X86110000Y-54901928D01*
X84590000Y-54901928D01*
X84465518Y-54914188D01*
X84345820Y-54950498D01*
X84235506Y-55009463D01*
X84138815Y-55088815D01*
X84059463Y-55185506D01*
X84000498Y-55295820D01*
X83964188Y-55415518D01*
X83955526Y-55503467D01*
X83893567Y-55410739D01*
X83699261Y-55216433D01*
X83470780Y-55063767D01*
X83216907Y-54958609D01*
X82947396Y-54905000D01*
X82672604Y-54905000D01*
X82403093Y-54958609D01*
X82149220Y-55063767D01*
X81920739Y-55216433D01*
X81726433Y-55410739D01*
X81573767Y-55639220D01*
X81540000Y-55720740D01*
X81506233Y-55639220D01*
X81353567Y-55410739D01*
X81159261Y-55216433D01*
X80930780Y-55063767D01*
X80676907Y-54958609D01*
X80407396Y-54905000D01*
X80132604Y-54905000D01*
X79863093Y-54958609D01*
X79609220Y-55063767D01*
X79380739Y-55216433D01*
X79186433Y-55410739D01*
X79033767Y-55639220D01*
X79000000Y-55720740D01*
X78966233Y-55639220D01*
X78813567Y-55410739D01*
X78619261Y-55216433D01*
X78390780Y-55063767D01*
X78136907Y-54958609D01*
X77867396Y-54905000D01*
X77592604Y-54905000D01*
X77323093Y-54958609D01*
X77069220Y-55063767D01*
X76840739Y-55216433D01*
X76646433Y-55410739D01*
X76493767Y-55639220D01*
X76460000Y-55720740D01*
X76426233Y-55639220D01*
X76273567Y-55410739D01*
X76079261Y-55216433D01*
X75850780Y-55063767D01*
X75596907Y-54958609D01*
X75327396Y-54905000D01*
X75052604Y-54905000D01*
X74783093Y-54958609D01*
X74529220Y-55063767D01*
X74300739Y-55216433D01*
X74106433Y-55410739D01*
X73953767Y-55639220D01*
X73920000Y-55720740D01*
X73886233Y-55639220D01*
X73733567Y-55410739D01*
X73539261Y-55216433D01*
X73310780Y-55063767D01*
X73056907Y-54958609D01*
X72787396Y-54905000D01*
X72512604Y-54905000D01*
X72243093Y-54958609D01*
X71989220Y-55063767D01*
X71760739Y-55216433D01*
X71566433Y-55410739D01*
X71413767Y-55639220D01*
X71382170Y-55715501D01*
X71375744Y-55697674D01*
X71314025Y-55582206D01*
X71074137Y-55515469D01*
X70289605Y-56300000D01*
X69930395Y-56300000D01*
X69145863Y-55515469D01*
X68905975Y-55582206D01*
X68789076Y-55830892D01*
X68722939Y-56097606D01*
X68710105Y-56372097D01*
X59130000Y-56372097D01*
X59130000Y-55335863D01*
X69325469Y-55335863D01*
X70110000Y-56120395D01*
X70894531Y-55335863D01*
X70827794Y-55095975D01*
X70579108Y-54979076D01*
X70312394Y-54912939D01*
X70037903Y-54900105D01*
X69766183Y-54941069D01*
X69507674Y-55034256D01*
X69392206Y-55095975D01*
X69325469Y-55335863D01*
X59130000Y-55335863D01*
X59130000Y-46145567D01*
X59214561Y-46349715D01*
X59579536Y-46895939D01*
X60044061Y-47360464D01*
X60590285Y-47725439D01*
X61197216Y-47976838D01*
X61841531Y-48105000D01*
X62498469Y-48105000D01*
X63142784Y-47976838D01*
X63749715Y-47725439D01*
X64295939Y-47360464D01*
X64760464Y-46895939D01*
X65125439Y-46349715D01*
X65376838Y-45742784D01*
X65505000Y-45098469D01*
X65505000Y-44441531D01*
X65376838Y-43797216D01*
X65125439Y-43190285D01*
X64760464Y-42644061D01*
X64295939Y-42179536D01*
X63749715Y-41814561D01*
X63545567Y-41730000D01*
X148794433Y-41730000D01*
X148590285Y-41814561D01*
X148590285Y-41814561D01*
G37*
X148590285Y-41814561D02*
X148044061Y-42179536D01*
X147579536Y-42644061D01*
X147214561Y-43190285D01*
X146963162Y-43797216D01*
X146835000Y-44441531D01*
X146835000Y-45098469D01*
X146963162Y-45742784D01*
X147214561Y-46349715D01*
X147579536Y-46895939D01*
X148044061Y-47360464D01*
X148590285Y-47725439D01*
X149197216Y-47976838D01*
X149841531Y-48105000D01*
X150498469Y-48105000D01*
X151142784Y-47976838D01*
X151749715Y-47725439D01*
X152295939Y-47360464D01*
X152760464Y-46895939D01*
X153125439Y-46349715D01*
X153210000Y-46145567D01*
X153210001Y-91394436D01*
X153125439Y-91190285D01*
X152760464Y-90644061D01*
X152295939Y-90179536D01*
X151749715Y-89814561D01*
X151142784Y-89563162D01*
X150498469Y-89435000D01*
X149841531Y-89435000D01*
X149197216Y-89563162D01*
X148590285Y-89814561D01*
X148044061Y-90179536D01*
X147579536Y-90644061D01*
X147214561Y-91190285D01*
X146963162Y-91797216D01*
X146835000Y-92441531D01*
X146835000Y-93098469D01*
X146963162Y-93742784D01*
X147214561Y-94349715D01*
X147579536Y-94895939D01*
X148044061Y-95360464D01*
X148590285Y-95725439D01*
X148794433Y-95810000D01*
X63545567Y-95810000D01*
X63749715Y-95725439D01*
X64295939Y-95360464D01*
X64760464Y-94895939D01*
X65125439Y-94349715D01*
X65376838Y-93742784D01*
X65505000Y-93098469D01*
X65505000Y-92441531D01*
X65376838Y-91797216D01*
X65125439Y-91190285D01*
X64760464Y-90644061D01*
X64295939Y-90179536D01*
X63749715Y-89814561D01*
X63142784Y-89563162D01*
X62498469Y-89435000D01*
X61841531Y-89435000D01*
X61197216Y-89563162D01*
X60590285Y-89814561D01*
X60044061Y-90179536D01*
X59579536Y-90644061D01*
X59214561Y-91190285D01*
X59130000Y-91394433D01*
X59130000Y-81072604D01*
X68715000Y-81072604D01*
X68715000Y-81347396D01*
X68768609Y-81616907D01*
X68873767Y-81870780D01*
X69026433Y-82099261D01*
X69220739Y-82293567D01*
X69449220Y-82446233D01*
X69703093Y-82551391D01*
X69972604Y-82605000D01*
X70247396Y-82605000D01*
X70516907Y-82551391D01*
X70770780Y-82446233D01*
X70999261Y-82293567D01*
X71193567Y-82099261D01*
X71346233Y-81870780D01*
X71380000Y-81789260D01*
X71413767Y-81870780D01*
X71566433Y-82099261D01*
X71760739Y-82293567D01*
X71989220Y-82446233D01*
X72243093Y-82551391D01*
X72512604Y-82605000D01*
X72787396Y-82605000D01*
X73056907Y-82551391D01*
X73310780Y-82446233D01*
X73539261Y-82293567D01*
X73733567Y-82099261D01*
X73886233Y-81870780D01*
X73920000Y-81789260D01*
X73953767Y-81870780D01*
X74106433Y-82099261D01*
X74300739Y-82293567D01*
X74529220Y-82446233D01*
X74783093Y-82551391D01*
X75052604Y-82605000D01*
X75327396Y-82605000D01*
X75596907Y-82551391D01*
X75850780Y-82446233D01*
X76079261Y-82293567D01*
X76273567Y-82099261D01*
X76426233Y-81870780D01*
X76460000Y-81789260D01*
X76493767Y-81870780D01*
X76646433Y-82099261D01*
X76840739Y-82293567D01*
X77069220Y-82446233D01*
X77323093Y-82551391D01*
X77592604Y-82605000D01*
X77867396Y-82605000D01*
X78136907Y-82551391D01*
X78390780Y-82446233D01*
X78619261Y-82293567D01*
X78813567Y-82099261D01*
X78966233Y-81870780D01*
X79000000Y-81789260D01*
X79033767Y-81870780D01*
X79186433Y-82099261D01*
X79380739Y-82293567D01*
X79609220Y-82446233D01*
X79863093Y-82551391D01*
X80132604Y-82605000D01*
X80407396Y-82605000D01*
X80676907Y-82551391D01*
X80930780Y-82446233D01*
X81159261Y-82293567D01*
X81353567Y-82099261D01*
X81506233Y-81870780D01*
X81540000Y-81789260D01*
X81573767Y-81870780D01*
X81726433Y-82099261D01*
X81920739Y-82293567D01*
X82149220Y-82446233D01*
X82403093Y-82551391D01*
X82672604Y-82605000D01*
X82947396Y-82605000D01*
X83216907Y-82551391D01*
X83470780Y-82446233D01*
X83699261Y-82293567D01*
X83893567Y-82099261D01*
X83955526Y-82006533D01*
X83964188Y-82094482D01*
X84000498Y-82214180D01*
X84059463Y-82324494D01*
X84138815Y-82421185D01*
X84235506Y-82500537D01*
X84345820Y-82559502D01*
X84465518Y-82595812D01*
X84590000Y-82608072D01*
X86110000Y-82608072D01*
X86234482Y-82595812D01*
X86354180Y-82559502D01*
X86464494Y-82500537D01*
X86561185Y-82421185D01*
X86640537Y-82324494D01*
X86699502Y-82214180D01*
X86735812Y-82094482D01*
X86748072Y-81970000D01*
X86748072Y-80450000D01*
X86735812Y-80325518D01*
X86699502Y-80205820D01*
X86640537Y-80095506D01*
X86561185Y-79998815D01*
X86464494Y-79919463D01*
X86354180Y-79860498D01*
X86234482Y-79824188D01*
X86110000Y-79811928D01*
X84590000Y-79811928D01*
X84465518Y-79824188D01*
X84345820Y-79860498D01*
X84235506Y-79919463D01*
X84138815Y-79998815D01*
X84059463Y-80095506D01*
X84000498Y-80205820D01*
X83964188Y-80325518D01*
X83955526Y-80413467D01*
X83893567Y-80320739D01*
X83699261Y-80126433D01*
X83470780Y-79973767D01*
X83216907Y-79868609D01*
X82947396Y-79815000D01*
X82672604Y-79815000D01*
X82403093Y-79868609D01*
X82149220Y-79973767D01*
X81920739Y-80126433D01*
X81726433Y-80320739D01*
X81573767Y-80549220D01*
X81540000Y-80630740D01*
X81506233Y-80549220D01*
X81353567Y-80320739D01*
X81159261Y-80126433D01*
X80930780Y-79973767D01*
X80676907Y-79868609D01*
X80407396Y-79815000D01*
X80132604Y-79815000D01*
X79863093Y-79868609D01*
X79609220Y-79973767D01*
X79380739Y-80126433D01*
X79186433Y-80320739D01*
X79033767Y-80549220D01*
X79000000Y-80630740D01*
X78966233Y-80549220D01*
X78813567Y-80320739D01*
X78619261Y-80126433D01*
X78390780Y-79973767D01*
X78136907Y-79868609D01*
X77867396Y-79815000D01*
X77592604Y-79815000D01*
X77323093Y-79868609D01*
X77069220Y-79973767D01*
X76840739Y-80126433D01*
X76646433Y-80320739D01*
X76493767Y-80549220D01*
X76460000Y-80630740D01*
X76426233Y-80549220D01*
X76273567Y-80320739D01*
X76079261Y-80126433D01*
X75850780Y-79973767D01*
X75596907Y-79868609D01*
X75327396Y-79815000D01*
X75052604Y-79815000D01*
X74783093Y-79868609D01*
X74529220Y-79973767D01*
X74300739Y-80126433D01*
X74106433Y-80320739D01*
X73953767Y-80549220D01*
X73920000Y-80630740D01*
X73886233Y-80549220D01*
X73733567Y-80320739D01*
X73539261Y-80126433D01*
X73310780Y-79973767D01*
X73056907Y-79868609D01*
X72787396Y-79815000D01*
X72512604Y-79815000D01*
X72243093Y-79868609D01*
X71989220Y-79973767D01*
X71760739Y-80126433D01*
X71566433Y-80320739D01*
X71413767Y-80549220D01*
X71380000Y-80630740D01*
X71346233Y-80549220D01*
X71193567Y-80320739D01*
X70999261Y-80126433D01*
X70770780Y-79973767D01*
X70516907Y-79868609D01*
X70247396Y-79815000D01*
X69972604Y-79815000D01*
X69703093Y-79868609D01*
X69449220Y-79973767D01*
X69220739Y-80126433D01*
X69026433Y-80320739D01*
X68873767Y-80549220D01*
X68768609Y-80803093D01*
X68715000Y-81072604D01*
X59130000Y-81072604D01*
X59130000Y-57264137D01*
X69325469Y-57264137D01*
X69392206Y-57504025D01*
X69640892Y-57620924D01*
X69907606Y-57687061D01*
X70182097Y-57699895D01*
X70453817Y-57658931D01*
X70712326Y-57565744D01*
X70827794Y-57504025D01*
X70894531Y-57264137D01*
X70110000Y-56479605D01*
X69325469Y-57264137D01*
X59130000Y-57264137D01*
X59130000Y-56372097D01*
X68710105Y-56372097D01*
X68751069Y-56643817D01*
X68844256Y-56902326D01*
X68905975Y-57017794D01*
X69145863Y-57084531D01*
X69930395Y-56300000D01*
X70289605Y-56300000D01*
X71074137Y-57084531D01*
X71314025Y-57017794D01*
X71379600Y-56878293D01*
X71413767Y-56960780D01*
X71566433Y-57189261D01*
X71760739Y-57383567D01*
X71989220Y-57536233D01*
X72243093Y-57641391D01*
X72512604Y-57695000D01*
X72787396Y-57695000D01*
X73056907Y-57641391D01*
X73310780Y-57536233D01*
X73539261Y-57383567D01*
X73733567Y-57189261D01*
X73886233Y-56960780D01*
X73920000Y-56879260D01*
X73953767Y-56960780D01*
X74106433Y-57189261D01*
X74300739Y-57383567D01*
X74529220Y-57536233D01*
X74783093Y-57641391D01*
X75052604Y-57695000D01*
X75327396Y-57695000D01*
X75596907Y-57641391D01*
X75850780Y-57536233D01*
X76079261Y-57383567D01*
X76273567Y-57189261D01*
X76426233Y-56960780D01*
X76460000Y-56879260D01*
X76493767Y-56960780D01*
X76646433Y-57189261D01*
X76840739Y-57383567D01*
X77069220Y-57536233D01*
X77323093Y-57641391D01*
X77592604Y-57695000D01*
X77867396Y-57695000D01*
X78136907Y-57641391D01*
X78390780Y-57536233D01*
X78619261Y-57383567D01*
X78813567Y-57189261D01*
X78966233Y-56960780D01*
X79000000Y-56879260D01*
X79033767Y-56960780D01*
X79186433Y-57189261D01*
X79380739Y-57383567D01*
X79609220Y-57536233D01*
X79863093Y-57641391D01*
X80132604Y-57695000D01*
X80407396Y-57695000D01*
X80676907Y-57641391D01*
X80930780Y-57536233D01*
X81159261Y-57383567D01*
X81353567Y-57189261D01*
X81506233Y-56960780D01*
X81540000Y-56879260D01*
X81573767Y-56960780D01*
X81726433Y-57189261D01*
X81920739Y-57383567D01*
X82048001Y-57468601D01*
X82048000Y-61502577D01*
X82044314Y-61540000D01*
X82048000Y-61577423D01*
X82048000Y-61577425D01*
X82059026Y-61689377D01*
X82102598Y-61833014D01*
X82102599Y-61833015D01*
X82173355Y-61965392D01*
X82212503Y-62013093D01*
X82268578Y-62081422D01*
X82297654Y-62105284D01*
X100104859Y-79912490D01*
X100075000Y-80062604D01*
X100075000Y-80337396D01*
X100128609Y-80606907D01*
X100233767Y-80860780D01*
X100386433Y-81089261D01*
X100580739Y-81283567D01*
X100809220Y-81436233D01*
X100890740Y-81470000D01*
X100809220Y-81503767D01*
X100580739Y-81656433D01*
X100386433Y-81850739D01*
X100233767Y-82079220D01*
X100128609Y-82333093D01*
X100075000Y-82602604D01*
X100075000Y-82877396D01*
X100128609Y-83146907D01*
X100233767Y-83400780D01*
X100386433Y-83629261D01*
X100580739Y-83823567D01*
X100809220Y-83976233D01*
X100890740Y-84010000D01*
X100809220Y-84043767D01*
X100580739Y-84196433D01*
X100386433Y-84390739D01*
X100233767Y-84619220D01*
X100128609Y-84873093D01*
X100075000Y-85142604D01*
X100075000Y-85417396D01*
X100128609Y-85686907D01*
X100233767Y-85940780D01*
X100386433Y-86169261D01*
X100580739Y-86363567D01*
X100809220Y-86516233D01*
X101063093Y-86621391D01*
X101332604Y-86675000D01*
X101607396Y-86675000D01*
X101876907Y-86621391D01*
X102130780Y-86516233D01*
X102359261Y-86363567D01*
X102553567Y-86169261D01*
X102706233Y-85940780D01*
X102811391Y-85686907D01*
X102865000Y-85417396D01*
X102865000Y-85142604D01*
X102811391Y-84873093D01*
X102706233Y-84619220D01*
X102553567Y-84390739D01*
X102359261Y-84196433D01*
X102130780Y-84043767D01*
X102049260Y-84010000D01*
X102130780Y-83976233D01*
X102359261Y-83823567D01*
X102553567Y-83629261D01*
X102706233Y-83400780D01*
X102811391Y-83146907D01*
X102865000Y-82877396D01*
X102865000Y-82602604D01*
X102811391Y-82333093D01*
X102706233Y-82079220D01*
X102553567Y-81850739D01*
X102359261Y-81656433D01*
X102130780Y-81503767D01*
X102049260Y-81470000D01*
X102130780Y-81436233D01*
X102359261Y-81283567D01*
X102553567Y-81089261D01*
X102706233Y-80860780D01*
X102811391Y-80606907D01*
X102865000Y-80337396D01*
X102865000Y-80062604D01*
X102811391Y-79793093D01*
X102706233Y-79539220D01*
X102553567Y-79310739D01*
X102359261Y-79116433D01*
X102130780Y-78963767D01*
X102049260Y-78930000D01*
X102130780Y-78896233D01*
X102359261Y-78743567D01*
X102553567Y-78549261D01*
X102706233Y-78320780D01*
X102811391Y-78066907D01*
X102865000Y-77797396D01*
X102865000Y-77522604D01*
X115315000Y-77522604D01*
X115315000Y-77797396D01*
X115368609Y-78066907D01*
X115473767Y-78320780D01*
X115626433Y-78549261D01*
X115820739Y-78743567D01*
X116049220Y-78896233D01*
X116130740Y-78930000D01*
X116049220Y-78963767D01*
X115820739Y-79116433D01*
X115626433Y-79310739D01*
X115473767Y-79539220D01*
X115368609Y-79793093D01*
X115315000Y-80062604D01*
X115315000Y-80337396D01*
X115368609Y-80606907D01*
X115473767Y-80860780D01*
X115626433Y-81089261D01*
X115820739Y-81283567D01*
X116049220Y-81436233D01*
X116130740Y-81470000D01*
X116049220Y-81503767D01*
X115820739Y-81656433D01*
X115626433Y-81850739D01*
X115473767Y-82079220D01*
X115368609Y-82333093D01*
X115315000Y-82602604D01*
X115315000Y-82877396D01*
X115368609Y-83146907D01*
X115473767Y-83400780D01*
X115626433Y-83629261D01*
X115820739Y-83823567D01*
X116049220Y-83976233D01*
X116130740Y-84010000D01*
X116049220Y-84043767D01*
X115820739Y-84196433D01*
X115626433Y-84390739D01*
X115473767Y-84619220D01*
X115368609Y-84873093D01*
X115315000Y-85142604D01*
X115315000Y-85417396D01*
X115368609Y-85686907D01*
X115473767Y-85940780D01*
X115626433Y-86169261D01*
X115820739Y-86363567D01*
X116049220Y-86516233D01*
X116303093Y-86621391D01*
X116572604Y-86675000D01*
X116847396Y-86675000D01*
X117116907Y-86621391D01*
X117370780Y-86516233D01*
X117599261Y-86363567D01*
X117793567Y-86169261D01*
X117946233Y-85940780D01*
X118051391Y-85686907D01*
X118105000Y-85417396D01*
X118105000Y-85142604D01*
X118051391Y-84873093D01*
X117946233Y-84619220D01*
X117793567Y-84390739D01*
X117599261Y-84196433D01*
X117370780Y-84043767D01*
X117289260Y-84010000D01*
X117370780Y-83976233D01*
X117599261Y-83823567D01*
X117793567Y-83629261D01*
X117946233Y-83400780D01*
X118051391Y-83146907D01*
X118105000Y-82877396D01*
X118105000Y-82602604D01*
X118051391Y-82333093D01*
X117946233Y-82079220D01*
X117793567Y-81850739D01*
X117599261Y-81656433D01*
X117370780Y-81503767D01*
X117289260Y-81470000D01*
X117370780Y-81436233D01*
X117599261Y-81283567D01*
X117793567Y-81089261D01*
X117946233Y-80860780D01*
X118051391Y-80606907D01*
X118105000Y-80337396D01*
X118105000Y-80062604D01*
X118051391Y-79793093D01*
X117946233Y-79539220D01*
X117793567Y-79310739D01*
X117599261Y-79116433D01*
X117370780Y-78963767D01*
X117289260Y-78930000D01*
X117370780Y-78896233D01*
X117599261Y-78743567D01*
X117793567Y-78549261D01*
X117946233Y-78320780D01*
X118051391Y-78066907D01*
X118105000Y-77797396D01*
X118105000Y-77522604D01*
X118077154Y-77382609D01*
X128515000Y-77382609D01*
X128515000Y-77657401D01*
X128568609Y-77926912D01*
X128673767Y-78180785D01*
X128826433Y-78409266D01*
X129020739Y-78603572D01*
X129249220Y-78756238D01*
X129503093Y-78861396D01*
X129772604Y-78915005D01*
X130047396Y-78915005D01*
X130316907Y-78861396D01*
X130570780Y-78756238D01*
X130799261Y-78603572D01*
X130993567Y-78409266D01*
X131146233Y-78180785D01*
X131180000Y-78099265D01*
X131213767Y-78180785D01*
X131366433Y-78409266D01*
X131560739Y-78603572D01*
X131789220Y-78756238D01*
X132043093Y-78861396D01*
X132312604Y-78915005D01*
X132587396Y-78915005D01*
X132856907Y-78861396D01*
X133110780Y-78756238D01*
X133339261Y-78603572D01*
X133533567Y-78409266D01*
X133686233Y-78180785D01*
X133720000Y-78099265D01*
X133753767Y-78180785D01*
X133906433Y-78409266D01*
X134100739Y-78603572D01*
X134329220Y-78756238D01*
X134583093Y-78861396D01*
X134852604Y-78915005D01*
X135127396Y-78915005D01*
X135396907Y-78861396D01*
X135650780Y-78756238D01*
X135879261Y-78603572D01*
X136073567Y-78409266D01*
X136226233Y-78180785D01*
X136260000Y-78099265D01*
X136293767Y-78180785D01*
X136446433Y-78409266D01*
X136640739Y-78603572D01*
X136869220Y-78756238D01*
X137123093Y-78861396D01*
X137392604Y-78915005D01*
X137667396Y-78915005D01*
X137936907Y-78861396D01*
X138190780Y-78756238D01*
X138419261Y-78603572D01*
X138613567Y-78409266D01*
X138766233Y-78180785D01*
X138800000Y-78099265D01*
X138833767Y-78180785D01*
X138986433Y-78409266D01*
X139180739Y-78603572D01*
X139409220Y-78756238D01*
X139663093Y-78861396D01*
X139932604Y-78915005D01*
X140207396Y-78915005D01*
X140476907Y-78861396D01*
X140730780Y-78756238D01*
X140959261Y-78603572D01*
X141153567Y-78409266D01*
X141306233Y-78180785D01*
X141340000Y-78099265D01*
X141373767Y-78180785D01*
X141526433Y-78409266D01*
X141720739Y-78603572D01*
X141949220Y-78756238D01*
X142203093Y-78861396D01*
X142472604Y-78915005D01*
X142747396Y-78915005D01*
X143016907Y-78861396D01*
X143270780Y-78756238D01*
X143499261Y-78603572D01*
X143693567Y-78409266D01*
X143755526Y-78316538D01*
X143764188Y-78404487D01*
X143800498Y-78524185D01*
X143859463Y-78634499D01*
X143938815Y-78731190D01*
X144035506Y-78810542D01*
X144145820Y-78869507D01*
X144265518Y-78905817D01*
X144390000Y-78918077D01*
X145910000Y-78918077D01*
X146034482Y-78905817D01*
X146154180Y-78869507D01*
X146264494Y-78810542D01*
X146361185Y-78731190D01*
X146440537Y-78634499D01*
X146499502Y-78524185D01*
X146535812Y-78404487D01*
X146548072Y-78280005D01*
X146548072Y-76760005D01*
X146535812Y-76635523D01*
X146499502Y-76515825D01*
X146440537Y-76405511D01*
X146361185Y-76308820D01*
X146264494Y-76229468D01*
X146154180Y-76170503D01*
X146034482Y-76134193D01*
X145910000Y-76121933D01*
X144390000Y-76121933D01*
X144265518Y-76134193D01*
X144145820Y-76170503D01*
X144035506Y-76229468D01*
X143938815Y-76308820D01*
X143859463Y-76405511D01*
X143800498Y-76515825D01*
X143764188Y-76635523D01*
X143755526Y-76723472D01*
X143693567Y-76630744D01*
X143499261Y-76436438D01*
X143270780Y-76283772D01*
X143016907Y-76178614D01*
X142747396Y-76125005D01*
X142472604Y-76125005D01*
X142203093Y-76178614D01*
X141949220Y-76283772D01*
X141720739Y-76436438D01*
X141526433Y-76630744D01*
X141373767Y-76859225D01*
X141340000Y-76940745D01*
X141306233Y-76859225D01*
X141153567Y-76630744D01*
X140959261Y-76436438D01*
X140730780Y-76283772D01*
X140476907Y-76178614D01*
X140207396Y-76125005D01*
X139932604Y-76125005D01*
X139663093Y-76178614D01*
X139409220Y-76283772D01*
X139180739Y-76436438D01*
X138986433Y-76630744D01*
X138833767Y-76859225D01*
X138800000Y-76940745D01*
X138766233Y-76859225D01*
X138613567Y-76630744D01*
X138419261Y-76436438D01*
X138190780Y-76283772D01*
X137936907Y-76178614D01*
X137667396Y-76125005D01*
X137392604Y-76125005D01*
X137123093Y-76178614D01*
X136869220Y-76283772D01*
X136640739Y-76436438D01*
X136446433Y-76630744D01*
X136293767Y-76859225D01*
X136260000Y-76940745D01*
X136226233Y-76859225D01*
X136073567Y-76630744D01*
X135879261Y-76436438D01*
X135650780Y-76283772D01*
X135396907Y-76178614D01*
X135127396Y-76125005D01*
X134852604Y-76125005D01*
X134583093Y-76178614D01*
X134329220Y-76283772D01*
X134100739Y-76436438D01*
X133906433Y-76630744D01*
X133753767Y-76859225D01*
X133720000Y-76940745D01*
X133686233Y-76859225D01*
X133533567Y-76630744D01*
X133339261Y-76436438D01*
X133110780Y-76283772D01*
X132856907Y-76178614D01*
X132587396Y-76125005D01*
X132312604Y-76125005D01*
X132043093Y-76178614D01*
X131789220Y-76283772D01*
X131560739Y-76436438D01*
X131366433Y-76630744D01*
X131213767Y-76859225D01*
X131180000Y-76940745D01*
X131146233Y-76859225D01*
X130993567Y-76630744D01*
X130799261Y-76436438D01*
X130570780Y-76283772D01*
X130316907Y-76178614D01*
X130047396Y-76125005D01*
X129772604Y-76125005D01*
X129503093Y-76178614D01*
X129249220Y-76283772D01*
X129020739Y-76436438D01*
X128826433Y-76630744D01*
X128673767Y-76859225D01*
X128568609Y-77113098D01*
X128515000Y-77382609D01*
X118077154Y-77382609D01*
X118051391Y-77253093D01*
X117946233Y-76999220D01*
X117793567Y-76770739D01*
X117599261Y-76576433D01*
X117370780Y-76423767D01*
X117294499Y-76392170D01*
X117312326Y-76385744D01*
X117427794Y-76324025D01*
X117494531Y-76084137D01*
X116710000Y-75299605D01*
X115925469Y-76084137D01*
X115992206Y-76324025D01*
X116131707Y-76389600D01*
X116049220Y-76423767D01*
X115820739Y-76576433D01*
X115626433Y-76770739D01*
X115473767Y-76999220D01*
X115368609Y-77253093D01*
X115315000Y-77522604D01*
X102865000Y-77522604D01*
X102811391Y-77253093D01*
X102706233Y-76999220D01*
X102553567Y-76770739D01*
X102359261Y-76576433D01*
X102130780Y-76423767D01*
X102049260Y-76390000D01*
X102130780Y-76356233D01*
X102359261Y-76203567D01*
X102553567Y-76009261D01*
X102706233Y-75780780D01*
X102811391Y-75526907D01*
X102865000Y-75257396D01*
X102865000Y-75192097D01*
X115310105Y-75192097D01*
X115351069Y-75463817D01*
X115444256Y-75722326D01*
X115505975Y-75837794D01*
X115745863Y-75904531D01*
X116530395Y-75120000D01*
X116889605Y-75120000D01*
X117674137Y-75904531D01*
X117914025Y-75837794D01*
X118030924Y-75589108D01*
X118097061Y-75322394D01*
X118109895Y-75047903D01*
X118068931Y-74776183D01*
X117975744Y-74517674D01*
X117914025Y-74402206D01*
X117674137Y-74335469D01*
X116889605Y-75120000D01*
X116530395Y-75120000D01*
X115745863Y-74335469D01*
X115505975Y-74402206D01*
X115389076Y-74650892D01*
X115322939Y-74917606D01*
X115310105Y-75192097D01*
X102865000Y-75192097D01*
X102865000Y-74982604D01*
X102811391Y-74713093D01*
X102706233Y-74459220D01*
X102553567Y-74230739D01*
X102359261Y-74036433D01*
X102130780Y-73883767D01*
X102049260Y-73850000D01*
X102130780Y-73816233D01*
X102359261Y-73663567D01*
X102553567Y-73469261D01*
X102706233Y-73240780D01*
X102811391Y-72986907D01*
X102865000Y-72717396D01*
X102865000Y-72442604D01*
X102811391Y-72173093D01*
X102706233Y-71919220D01*
X102553567Y-71690739D01*
X102359261Y-71496433D01*
X102130780Y-71343767D01*
X102049260Y-71310000D01*
X102130780Y-71276233D01*
X102359261Y-71123567D01*
X102553567Y-70929261D01*
X102706233Y-70700780D01*
X102811391Y-70446907D01*
X102865000Y-70177396D01*
X102865000Y-69902604D01*
X102811391Y-69633093D01*
X102706233Y-69379220D01*
X102553567Y-69150739D01*
X102359261Y-68956433D01*
X102130780Y-68803767D01*
X102049260Y-68770000D01*
X102130780Y-68736233D01*
X102359261Y-68583567D01*
X102553567Y-68389261D01*
X102706233Y-68160780D01*
X102811391Y-67906907D01*
X102865000Y-67637396D01*
X102865000Y-67362604D01*
X102811391Y-67093093D01*
X102706233Y-66839220D01*
X102553567Y-66610739D01*
X102359261Y-66416433D01*
X102130780Y-66263767D01*
X102049260Y-66230000D01*
X102130780Y-66196233D01*
X102359261Y-66043567D01*
X102553567Y-65849261D01*
X102706233Y-65620780D01*
X102811391Y-65366907D01*
X102865000Y-65097396D01*
X102865000Y-64822604D01*
X102811391Y-64553093D01*
X102706233Y-64299220D01*
X102553567Y-64070739D01*
X102359261Y-63876433D01*
X102130780Y-63723767D01*
X102049260Y-63690000D01*
X102130780Y-63656233D01*
X102359261Y-63503567D01*
X102553567Y-63309261D01*
X102706233Y-63080780D01*
X102811391Y-62826907D01*
X102865000Y-62557396D01*
X102865000Y-62282604D01*
X102811391Y-62013093D01*
X102706233Y-61759220D01*
X102553567Y-61530739D01*
X102359261Y-61336433D01*
X102130780Y-61183767D01*
X102049260Y-61150000D01*
X102130780Y-61116233D01*
X102359261Y-60963567D01*
X102553567Y-60769261D01*
X102706233Y-60540780D01*
X102811391Y-60286907D01*
X102865000Y-60017396D01*
X102865000Y-59742604D01*
X102811391Y-59473093D01*
X102706233Y-59219220D01*
X102553567Y-58990739D01*
X102359261Y-58796433D01*
X102130780Y-58643767D01*
X102049260Y-58610000D01*
X102130780Y-58576233D01*
X102359261Y-58423567D01*
X102553567Y-58229261D01*
X102706233Y-58000780D01*
X102811391Y-57746907D01*
X102865000Y-57477396D01*
X102865000Y-57202604D01*
X102811391Y-56933093D01*
X102706233Y-56679220D01*
X102553567Y-56450739D01*
X102359261Y-56256433D01*
X102130780Y-56103767D01*
X102049260Y-56070000D01*
X102130780Y-56036233D01*
X102359261Y-55883567D01*
X102553567Y-55689261D01*
X102706233Y-55460780D01*
X102811391Y-55206907D01*
X102865000Y-54937396D01*
X102865000Y-54662604D01*
X102811391Y-54393093D01*
X102706233Y-54139220D01*
X102553567Y-53910739D01*
X102359261Y-53716433D01*
X102266533Y-53654474D01*
X102354482Y-53645812D01*
X102474180Y-53609502D01*
X102584494Y-53550537D01*
X102681185Y-53471185D01*
X102760537Y-53374494D01*
X102819502Y-53264180D01*
X102855812Y-53144482D01*
X102868072Y-53020000D01*
X102868072Y-51500000D01*
X115311928Y-51500000D01*
X115311928Y-53020000D01*
X115324188Y-53144482D01*
X115360498Y-53264180D01*
X115419463Y-53374494D01*
X115498815Y-53471185D01*
X115595506Y-53550537D01*
X115705820Y-53609502D01*
X115825518Y-53645812D01*
X115913467Y-53654474D01*
X115820739Y-53716433D01*
X115626433Y-53910739D01*
X115473767Y-54139220D01*
X115368609Y-54393093D01*
X115315000Y-54662604D01*
X115315000Y-54937396D01*
X115368609Y-55206907D01*
X115473767Y-55460780D01*
X115626433Y-55689261D01*
X115820739Y-55883567D01*
X116049220Y-56036233D01*
X116130740Y-56070000D01*
X116049220Y-56103767D01*
X115820739Y-56256433D01*
X115626433Y-56450739D01*
X115473767Y-56679220D01*
X115368609Y-56933093D01*
X115315000Y-57202604D01*
X115315000Y-57477396D01*
X115368609Y-57746907D01*
X115473767Y-58000780D01*
X115626433Y-58229261D01*
X115820739Y-58423567D01*
X116049220Y-58576233D01*
X116130740Y-58610000D01*
X116049220Y-58643767D01*
X115820739Y-58796433D01*
X115626433Y-58990739D01*
X115473767Y-59219220D01*
X115368609Y-59473093D01*
X115315000Y-59742604D01*
X115315000Y-60017396D01*
X115368609Y-60286907D01*
X115473767Y-60540780D01*
X115626433Y-60769261D01*
X115820739Y-60963567D01*
X116049220Y-61116233D01*
X116130740Y-61150000D01*
X116049220Y-61183767D01*
X115820739Y-61336433D01*
X115626433Y-61530739D01*
X115473767Y-61759220D01*
X115368609Y-62013093D01*
X115315000Y-62282604D01*
X115315000Y-62557396D01*
X115368609Y-62826907D01*
X115473767Y-63080780D01*
X115626433Y-63309261D01*
X115820739Y-63503567D01*
X116049220Y-63656233D01*
X116130740Y-63690000D01*
X116049220Y-63723767D01*
X115820739Y-63876433D01*
X115626433Y-64070739D01*
X115473767Y-64299220D01*
X115368609Y-64553093D01*
X115315000Y-64822604D01*
X115315000Y-65097396D01*
X115368609Y-65366907D01*
X115473767Y-65620780D01*
X115626433Y-65849261D01*
X115820739Y-66043567D01*
X116049220Y-66196233D01*
X116130740Y-66230000D01*
X116049220Y-66263767D01*
X115820739Y-66416433D01*
X115626433Y-66610739D01*
X115473767Y-66839220D01*
X115368609Y-67093093D01*
X115315000Y-67362604D01*
X115315000Y-67637396D01*
X115368609Y-67906907D01*
X115473767Y-68160780D01*
X115626433Y-68389261D01*
X115820739Y-68583567D01*
X116049220Y-68736233D01*
X116130740Y-68770000D01*
X116049220Y-68803767D01*
X115820739Y-68956433D01*
X115626433Y-69150739D01*
X115473767Y-69379220D01*
X115368609Y-69633093D01*
X115315000Y-69902604D01*
X115315000Y-70177396D01*
X115368609Y-70446907D01*
X115473767Y-70700780D01*
X115626433Y-70929261D01*
X115820739Y-71123567D01*
X116049220Y-71276233D01*
X116130740Y-71310000D01*
X116049220Y-71343767D01*
X115820739Y-71496433D01*
X115626433Y-71690739D01*
X115473767Y-71919220D01*
X115368609Y-72173093D01*
X115315000Y-72442604D01*
X115315000Y-72717396D01*
X115368609Y-72986907D01*
X115473767Y-73240780D01*
X115626433Y-73469261D01*
X115820739Y-73663567D01*
X116049220Y-73816233D01*
X116125501Y-73847830D01*
X116107674Y-73854256D01*
X115992206Y-73915975D01*
X115925469Y-74155863D01*
X116710000Y-74940395D01*
X117494531Y-74155863D01*
X117427794Y-73915975D01*
X117288293Y-73850400D01*
X117370780Y-73816233D01*
X117599261Y-73663567D01*
X117793567Y-73469261D01*
X117946233Y-73240780D01*
X118051391Y-72986907D01*
X118105000Y-72717396D01*
X118105000Y-72442604D01*
X118051391Y-72173093D01*
X117946233Y-71919220D01*
X117793567Y-71690739D01*
X117599261Y-71496433D01*
X117370780Y-71343767D01*
X117289260Y-71310000D01*
X117370780Y-71276233D01*
X117599261Y-71123567D01*
X117793567Y-70929261D01*
X117946233Y-70700780D01*
X118051391Y-70446907D01*
X118105000Y-70177396D01*
X118105000Y-69902604D01*
X118051391Y-69633093D01*
X117946233Y-69379220D01*
X117793567Y-69150739D01*
X117599261Y-68956433D01*
X117370780Y-68803767D01*
X117289260Y-68770000D01*
X117370780Y-68736233D01*
X117599261Y-68583567D01*
X117793567Y-68389261D01*
X117946233Y-68160780D01*
X118051391Y-67906907D01*
X118105000Y-67637396D01*
X118105000Y-67362604D01*
X118051391Y-67093093D01*
X117946233Y-66839220D01*
X117793567Y-66610739D01*
X117599261Y-66416433D01*
X117370780Y-66263767D01*
X117289260Y-66230000D01*
X117370780Y-66196233D01*
X117599261Y-66043567D01*
X117793567Y-65849261D01*
X117946233Y-65620780D01*
X118051391Y-65366907D01*
X118105000Y-65097396D01*
X118105000Y-64822604D01*
X118051391Y-64553093D01*
X117946233Y-64299220D01*
X117793567Y-64070739D01*
X117599261Y-63876433D01*
X117370780Y-63723767D01*
X117289260Y-63690000D01*
X117370780Y-63656233D01*
X117599261Y-63503567D01*
X117793567Y-63309261D01*
X117946233Y-63080780D01*
X118051391Y-62826907D01*
X118105000Y-62557396D01*
X118105000Y-62282604D01*
X118051391Y-62013093D01*
X117946233Y-61759220D01*
X117793567Y-61530739D01*
X117599261Y-61336433D01*
X117370780Y-61183767D01*
X117289260Y-61150000D01*
X117370780Y-61116233D01*
X117568468Y-60984142D01*
X130855469Y-60984142D01*
X130922206Y-61224030D01*
X131170892Y-61340929D01*
X131437606Y-61407066D01*
X131712097Y-61419900D01*
X131983817Y-61378936D01*
X132242326Y-61285749D01*
X132357794Y-61224030D01*
X132424531Y-60984142D01*
X131640000Y-60199610D01*
X130855469Y-60984142D01*
X117568468Y-60984142D01*
X117599261Y-60963567D01*
X117793567Y-60769261D01*
X117946233Y-60540780D01*
X118051391Y-60286907D01*
X118090140Y-60092102D01*
X130240105Y-60092102D01*
X130281069Y-60363822D01*
X130374256Y-60622331D01*
X130435975Y-60737799D01*
X130675863Y-60804536D01*
X131460395Y-60020005D01*
X131819605Y-60020005D01*
X132604137Y-60804536D01*
X132844025Y-60737799D01*
X132909600Y-60598298D01*
X132943767Y-60680785D01*
X133096433Y-60909266D01*
X133290739Y-61103572D01*
X133519220Y-61256238D01*
X133773093Y-61361396D01*
X134042604Y-61415005D01*
X134317396Y-61415005D01*
X134586907Y-61361396D01*
X134840780Y-61256238D01*
X135069261Y-61103572D01*
X135263567Y-60909266D01*
X135416233Y-60680785D01*
X135450000Y-60599265D01*
X135483767Y-60680785D01*
X135636433Y-60909266D01*
X135830739Y-61103572D01*
X136059220Y-61256238D01*
X136313093Y-61361396D01*
X136582604Y-61415005D01*
X136857396Y-61415005D01*
X137126907Y-61361396D01*
X137380780Y-61256238D01*
X137609261Y-61103572D01*
X137803567Y-60909266D01*
X137956233Y-60680785D01*
X137990000Y-60599265D01*
X138023767Y-60680785D01*
X138176433Y-60909266D01*
X138370739Y-61103572D01*
X138599220Y-61256238D01*
X138853093Y-61361396D01*
X139122604Y-61415005D01*
X139397396Y-61415005D01*
X139666907Y-61361396D01*
X139920780Y-61256238D01*
X140149261Y-61103572D01*
X140343567Y-60909266D01*
X140496233Y-60680785D01*
X140530000Y-60599265D01*
X140563767Y-60680785D01*
X140716433Y-60909266D01*
X140910739Y-61103572D01*
X141139220Y-61256238D01*
X141393093Y-61361396D01*
X141662604Y-61415005D01*
X141937396Y-61415005D01*
X142206907Y-61361396D01*
X142460780Y-61256238D01*
X142689261Y-61103572D01*
X142883567Y-60909266D01*
X143036233Y-60680785D01*
X143070000Y-60599265D01*
X143103767Y-60680785D01*
X143256433Y-60909266D01*
X143450739Y-61103572D01*
X143679220Y-61256238D01*
X143933093Y-61361396D01*
X144202604Y-61415005D01*
X144477396Y-61415005D01*
X144746907Y-61361396D01*
X145000780Y-61256238D01*
X145229261Y-61103572D01*
X145423567Y-60909266D01*
X145485526Y-60816538D01*
X145494188Y-60904487D01*
X145530498Y-61024185D01*
X145589463Y-61134499D01*
X145668815Y-61231190D01*
X145765506Y-61310542D01*
X145875820Y-61369507D01*
X145995518Y-61405817D01*
X146120000Y-61418077D01*
X147640000Y-61418077D01*
X147764482Y-61405817D01*
X147884180Y-61369507D01*
X147994494Y-61310542D01*
X148091185Y-61231190D01*
X148170537Y-61134499D01*
X148229502Y-61024185D01*
X148265812Y-60904487D01*
X148278072Y-60780005D01*
X148278072Y-59260005D01*
X148265812Y-59135523D01*
X148229502Y-59015825D01*
X148170537Y-58905511D01*
X148091185Y-58808820D01*
X147994494Y-58729468D01*
X147884180Y-58670503D01*
X147764482Y-58634193D01*
X147640000Y-58621933D01*
X146120000Y-58621933D01*
X145995518Y-58634193D01*
X145875820Y-58670503D01*
X145765506Y-58729468D01*
X145668815Y-58808820D01*
X145589463Y-58905511D01*
X145530498Y-59015825D01*
X145494188Y-59135523D01*
X145485526Y-59223472D01*
X145423567Y-59130744D01*
X145229261Y-58936438D01*
X145000780Y-58783772D01*
X144746907Y-58678614D01*
X144477396Y-58625005D01*
X144202604Y-58625005D01*
X143933093Y-58678614D01*
X143679220Y-58783772D01*
X143450739Y-58936438D01*
X143256433Y-59130744D01*
X143103767Y-59359225D01*
X143070000Y-59440745D01*
X143036233Y-59359225D01*
X142883567Y-59130744D01*
X142689261Y-58936438D01*
X142460780Y-58783772D01*
X142206907Y-58678614D01*
X141937396Y-58625005D01*
X141662604Y-58625005D01*
X141393093Y-58678614D01*
X141139220Y-58783772D01*
X140910739Y-58936438D01*
X140716433Y-59130744D01*
X140563767Y-59359225D01*
X140530000Y-59440745D01*
X140496233Y-59359225D01*
X140343567Y-59130744D01*
X140149261Y-58936438D01*
X139920780Y-58783772D01*
X139666907Y-58678614D01*
X139397396Y-58625005D01*
X139122604Y-58625005D01*
X138853093Y-58678614D01*
X138599220Y-58783772D01*
X138370739Y-58936438D01*
X138176433Y-59130744D01*
X138023767Y-59359225D01*
X137990000Y-59440745D01*
X137956233Y-59359225D01*
X137803567Y-59130744D01*
X137609261Y-58936438D01*
X137380780Y-58783772D01*
X137126907Y-58678614D01*
X136857396Y-58625005D01*
X136582604Y-58625005D01*
X136313093Y-58678614D01*
X136059220Y-58783772D01*
X135830739Y-58936438D01*
X135636433Y-59130744D01*
X135483767Y-59359225D01*
X135450000Y-59440745D01*
X135416233Y-59359225D01*
X135263567Y-59130744D01*
X135069261Y-58936438D01*
X134840780Y-58783772D01*
X134586907Y-58678614D01*
X134317396Y-58625005D01*
X134042604Y-58625005D01*
X133773093Y-58678614D01*
X133519220Y-58783772D01*
X133290739Y-58936438D01*
X133096433Y-59130744D01*
X132943767Y-59359225D01*
X132912170Y-59435506D01*
X132905744Y-59417679D01*
X132844025Y-59302211D01*
X132604137Y-59235474D01*
X131819605Y-60020005D01*
X131460395Y-60020005D01*
X130675863Y-59235474D01*
X130435975Y-59302211D01*
X130319076Y-59550897D01*
X130252939Y-59817611D01*
X130240105Y-60092102D01*
X118090140Y-60092102D01*
X118105000Y-60017396D01*
X118105000Y-59742604D01*
X118051391Y-59473093D01*
X117946233Y-59219220D01*
X117837085Y-59055868D01*
X130855469Y-59055868D01*
X131640000Y-59840400D01*
X132424531Y-59055868D01*
X132357794Y-58815980D01*
X132109108Y-58699081D01*
X131842394Y-58632944D01*
X131567903Y-58620110D01*
X131296183Y-58661074D01*
X131037674Y-58754261D01*
X130922206Y-58815980D01*
X130855469Y-59055868D01*
X117837085Y-59055868D01*
X117793567Y-58990739D01*
X117599261Y-58796433D01*
X117370780Y-58643767D01*
X117289260Y-58610000D01*
X117370780Y-58576233D01*
X117599261Y-58423567D01*
X117793567Y-58229261D01*
X117946233Y-58000780D01*
X118051391Y-57746907D01*
X118105000Y-57477396D01*
X118105000Y-57202604D01*
X118051391Y-56933093D01*
X117946233Y-56679220D01*
X117793567Y-56450739D01*
X117599261Y-56256433D01*
X117370780Y-56103767D01*
X117289260Y-56070000D01*
X117370780Y-56036233D01*
X117599261Y-55883567D01*
X117793567Y-55689261D01*
X117946233Y-55460780D01*
X118051391Y-55206907D01*
X118105000Y-54937396D01*
X118105000Y-54662604D01*
X118051391Y-54393093D01*
X117946233Y-54139220D01*
X117793567Y-53910739D01*
X117599261Y-53716433D01*
X117506533Y-53654474D01*
X117594482Y-53645812D01*
X117714180Y-53609502D01*
X117824494Y-53550537D01*
X117921185Y-53471185D01*
X118000537Y-53374494D01*
X118059502Y-53264180D01*
X118095812Y-53144482D01*
X118108072Y-53020000D01*
X118108072Y-51500000D01*
X118095812Y-51375518D01*
X118059502Y-51255820D01*
X118000537Y-51145506D01*
X117921185Y-51048815D01*
X117824494Y-50969463D01*
X117714180Y-50910498D01*
X117594482Y-50874188D01*
X117470000Y-50861928D01*
X115950000Y-50861928D01*
X115825518Y-50874188D01*
X115705820Y-50910498D01*
X115595506Y-50969463D01*
X115498815Y-51048815D01*
X115419463Y-51145506D01*
X115360498Y-51255820D01*
X115324188Y-51375518D01*
X115311928Y-51500000D01*
X102868072Y-51500000D01*
X102855812Y-51375518D01*
X102819502Y-51255820D01*
X102760537Y-51145506D01*
X102681185Y-51048815D01*
X102584494Y-50969463D01*
X102474180Y-50910498D01*
X102354482Y-50874188D01*
X102230000Y-50861928D01*
X100710000Y-50861928D01*
X100585518Y-50874188D01*
X100465820Y-50910498D01*
X100355506Y-50969463D01*
X100258815Y-51048815D01*
X100179463Y-51145506D01*
X100120498Y-51255820D01*
X100084188Y-51375518D01*
X100071928Y-51500000D01*
X100071928Y-53020000D01*
X100084188Y-53144482D01*
X100120498Y-53264180D01*
X100179463Y-53374494D01*
X100258815Y-53471185D01*
X100355506Y-53550537D01*
X100465820Y-53609502D01*
X100585518Y-53645812D01*
X100673467Y-53654474D01*
X100580739Y-53716433D01*
X100386433Y-53910739D01*
X100233767Y-54139220D01*
X100128609Y-54393093D01*
X100075000Y-54662604D01*
X100075000Y-54937396D01*
X100128609Y-55206907D01*
X100233767Y-55460780D01*
X100386433Y-55689261D01*
X100580739Y-55883567D01*
X100809220Y-56036233D01*
X100890740Y-56070000D01*
X100809220Y-56103767D01*
X100580739Y-56256433D01*
X100386433Y-56450739D01*
X100233767Y-56679220D01*
X100128609Y-56933093D01*
X100075000Y-57202604D01*
X100075000Y-57477396D01*
X100128609Y-57746907D01*
X100233767Y-58000780D01*
X100386433Y-58229261D01*
X100580739Y-58423567D01*
X100809220Y-58576233D01*
X100890740Y-58610000D01*
X100809220Y-58643767D01*
X100580739Y-58796433D01*
X100386433Y-58990739D01*
X100233767Y-59219220D01*
X100128609Y-59473093D01*
X100075000Y-59742604D01*
X100075000Y-60017396D01*
X100128609Y-60286907D01*
X100233767Y-60540780D01*
X100386433Y-60769261D01*
X100580739Y-60963567D01*
X100809220Y-61116233D01*
X100890740Y-61150000D01*
X100809220Y-61183767D01*
X100580739Y-61336433D01*
X100386433Y-61530739D01*
X100233767Y-61759220D01*
X100128609Y-62013093D01*
X100075000Y-62282604D01*
X100075000Y-62557396D01*
X100128609Y-62826907D01*
X100233767Y-63080780D01*
X100386433Y-63309261D01*
X100580739Y-63503567D01*
X100809220Y-63656233D01*
X100890740Y-63690000D01*
X100809220Y-63723767D01*
X100580739Y-63876433D01*
X100386433Y-64070739D01*
X100233767Y-64299220D01*
X100128609Y-64553093D01*
X100075000Y-64822604D01*
X100075000Y-65097396D01*
X100128609Y-65366907D01*
X100233767Y-65620780D01*
X100386433Y-65849261D01*
X100580739Y-66043567D01*
X100809220Y-66196233D01*
X100890740Y-66230000D01*
X100809220Y-66263767D01*
X100580739Y-66416433D01*
X100386433Y-66610739D01*
X100233767Y-66839220D01*
X100128609Y-67093093D01*
X100075000Y-67362604D01*
X100075000Y-67637396D01*
X100128609Y-67906907D01*
X100233767Y-68160780D01*
X100386433Y-68389261D01*
X100580739Y-68583567D01*
X100809220Y-68736233D01*
X100890740Y-68770000D01*
X100809220Y-68803767D01*
X100580739Y-68956433D01*
X100386433Y-69150739D01*
X100233767Y-69379220D01*
X100128609Y-69633093D01*
X100075000Y-69902604D01*
X100075000Y-70177396D01*
X100128609Y-70446907D01*
X100233767Y-70700780D01*
X100386433Y-70929261D01*
X100580739Y-71123567D01*
X100809220Y-71276233D01*
X100890740Y-71310000D01*
X100809220Y-71343767D01*
X100580739Y-71496433D01*
X100386433Y-71690739D01*
X100233767Y-71919220D01*
X100128609Y-72173093D01*
X100075000Y-72442604D01*
X100075000Y-72717396D01*
X100128609Y-72986907D01*
X100233767Y-73240780D01*
X100386433Y-73469261D01*
X100580739Y-73663567D01*
X100809220Y-73816233D01*
X100890740Y-73850000D01*
X100809220Y-73883767D01*
X100580739Y-74036433D01*
X100386433Y-74230739D01*
X100233767Y-74459220D01*
X100128609Y-74713093D01*
X100075000Y-74982604D01*
X100075000Y-75257396D01*
X100128609Y-75526907D01*
X100233767Y-75780780D01*
X100386433Y-76009261D01*
X100580739Y-76203567D01*
X100809220Y-76356233D01*
X100890740Y-76390000D01*
X100809220Y-76423767D01*
X100580739Y-76576433D01*
X100386433Y-76770739D01*
X100233767Y-76999220D01*
X100128609Y-77253093D01*
X100075000Y-77522604D01*
X100075000Y-77727369D01*
X83572000Y-61224370D01*
X83572000Y-57468600D01*
X83699261Y-57383567D01*
X83893567Y-57189261D01*
X83955526Y-57096533D01*
X83964188Y-57184482D01*
X84000498Y-57304180D01*
X84059463Y-57414494D01*
X84138815Y-57511185D01*
X84235506Y-57590537D01*
X84345820Y-57649502D01*
X84465518Y-57685812D01*
X84590000Y-57698072D01*
X86110000Y-57698072D01*
X86234482Y-57685812D01*
X86354180Y-57649502D01*
X86464494Y-57590537D01*
X86561185Y-57511185D01*
X86640537Y-57414494D01*
X86699502Y-57304180D01*
X86735812Y-57184482D01*
X86748072Y-57060000D01*
X86748072Y-55540000D01*
X86735812Y-55415518D01*
X86699502Y-55295820D01*
X86640537Y-55185506D01*
X86561185Y-55088815D01*
X86464494Y-55009463D01*
X86354180Y-54950498D01*
X86234482Y-54914188D01*
X86110000Y-54901928D01*
X84590000Y-54901928D01*
X84465518Y-54914188D01*
X84345820Y-54950498D01*
X84235506Y-55009463D01*
X84138815Y-55088815D01*
X84059463Y-55185506D01*
X84000498Y-55295820D01*
X83964188Y-55415518D01*
X83955526Y-55503467D01*
X83893567Y-55410739D01*
X83699261Y-55216433D01*
X83470780Y-55063767D01*
X83216907Y-54958609D01*
X82947396Y-54905000D01*
X82672604Y-54905000D01*
X82403093Y-54958609D01*
X82149220Y-55063767D01*
X81920739Y-55216433D01*
X81726433Y-55410739D01*
X81573767Y-55639220D01*
X81540000Y-55720740D01*
X81506233Y-55639220D01*
X81353567Y-55410739D01*
X81159261Y-55216433D01*
X80930780Y-55063767D01*
X80676907Y-54958609D01*
X80407396Y-54905000D01*
X80132604Y-54905000D01*
X79863093Y-54958609D01*
X79609220Y-55063767D01*
X79380739Y-55216433D01*
X79186433Y-55410739D01*
X79033767Y-55639220D01*
X79000000Y-55720740D01*
X78966233Y-55639220D01*
X78813567Y-55410739D01*
X78619261Y-55216433D01*
X78390780Y-55063767D01*
X78136907Y-54958609D01*
X77867396Y-54905000D01*
X77592604Y-54905000D01*
X77323093Y-54958609D01*
X77069220Y-55063767D01*
X76840739Y-55216433D01*
X76646433Y-55410739D01*
X76493767Y-55639220D01*
X76460000Y-55720740D01*
X76426233Y-55639220D01*
X76273567Y-55410739D01*
X76079261Y-55216433D01*
X75850780Y-55063767D01*
X75596907Y-54958609D01*
X75327396Y-54905000D01*
X75052604Y-54905000D01*
X74783093Y-54958609D01*
X74529220Y-55063767D01*
X74300739Y-55216433D01*
X74106433Y-55410739D01*
X73953767Y-55639220D01*
X73920000Y-55720740D01*
X73886233Y-55639220D01*
X73733567Y-55410739D01*
X73539261Y-55216433D01*
X73310780Y-55063767D01*
X73056907Y-54958609D01*
X72787396Y-54905000D01*
X72512604Y-54905000D01*
X72243093Y-54958609D01*
X71989220Y-55063767D01*
X71760739Y-55216433D01*
X71566433Y-55410739D01*
X71413767Y-55639220D01*
X71382170Y-55715501D01*
X71375744Y-55697674D01*
X71314025Y-55582206D01*
X71074137Y-55515469D01*
X70289605Y-56300000D01*
X69930395Y-56300000D01*
X69145863Y-55515469D01*
X68905975Y-55582206D01*
X68789076Y-55830892D01*
X68722939Y-56097606D01*
X68710105Y-56372097D01*
X59130000Y-56372097D01*
X59130000Y-55335863D01*
X69325469Y-55335863D01*
X70110000Y-56120395D01*
X70894531Y-55335863D01*
X70827794Y-55095975D01*
X70579108Y-54979076D01*
X70312394Y-54912939D01*
X70037903Y-54900105D01*
X69766183Y-54941069D01*
X69507674Y-55034256D01*
X69392206Y-55095975D01*
X69325469Y-55335863D01*
X59130000Y-55335863D01*
X59130000Y-46145567D01*
X59214561Y-46349715D01*
X59579536Y-46895939D01*
X60044061Y-47360464D01*
X60590285Y-47725439D01*
X61197216Y-47976838D01*
X61841531Y-48105000D01*
X62498469Y-48105000D01*
X63142784Y-47976838D01*
X63749715Y-47725439D01*
X64295939Y-47360464D01*
X64760464Y-46895939D01*
X65125439Y-46349715D01*
X65376838Y-45742784D01*
X65505000Y-45098469D01*
X65505000Y-44441531D01*
X65376838Y-43797216D01*
X65125439Y-43190285D01*
X64760464Y-42644061D01*
X64295939Y-42179536D01*
X63749715Y-41814561D01*
X63545567Y-41730000D01*
X148794433Y-41730000D01*
X148590285Y-41814561D01*
M02*
