G04 #@! TF.GenerationSoftware,KiCad,Pcbnew,5.1.4+dfsg1-1*
G04 #@! TF.CreationDate,2020-01-05T16:23:31-08:00*
G04 #@! TF.ProjectId,distance_meter_hardware,64697374-616e-4636-955f-6d657465725f,rev?*
G04 #@! TF.SameCoordinates,Original*
G04 #@! TF.FileFunction,Soldermask,Top*
G04 #@! TF.FilePolarity,Negative*
%FSLAX46Y46*%
G04 Gerber Fmt 4.6, Leading zero omitted, Abs format (unit mm)*
G04 Created by KiCad (PCBNEW 5.1.4+dfsg1-1) date 2020-01-05 16:23:31*
%MOMM*%
%LPD*%
G04 APERTURE LIST*
%ADD10C,0.100000*%
G04 APERTURE END LIST*
D10*
G36*
X116946560Y-84500166D02*
G01*
X117094153Y-84561301D01*
X117226982Y-84650055D01*
X117339945Y-84763018D01*
X117428699Y-84895847D01*
X117489834Y-85043440D01*
X117521000Y-85200123D01*
X117521000Y-85359877D01*
X117489834Y-85516560D01*
X117428699Y-85664153D01*
X117339945Y-85796982D01*
X117226982Y-85909945D01*
X117094153Y-85998699D01*
X117094152Y-85998700D01*
X117094151Y-85998700D01*
X116946560Y-86059834D01*
X116789878Y-86091000D01*
X116630122Y-86091000D01*
X116473440Y-86059834D01*
X116325849Y-85998700D01*
X116325848Y-85998700D01*
X116325847Y-85998699D01*
X116193018Y-85909945D01*
X116080055Y-85796982D01*
X115991301Y-85664153D01*
X115930166Y-85516560D01*
X115899000Y-85359877D01*
X115899000Y-85200123D01*
X115930166Y-85043440D01*
X115991301Y-84895847D01*
X116080055Y-84763018D01*
X116193018Y-84650055D01*
X116325847Y-84561301D01*
X116473440Y-84500166D01*
X116630122Y-84469000D01*
X116789878Y-84469000D01*
X116946560Y-84500166D01*
X116946560Y-84500166D01*
G37*
G36*
X101706560Y-84500166D02*
G01*
X101854153Y-84561301D01*
X101986982Y-84650055D01*
X102099945Y-84763018D01*
X102188699Y-84895847D01*
X102249834Y-85043440D01*
X102281000Y-85200123D01*
X102281000Y-85359877D01*
X102249834Y-85516560D01*
X102188699Y-85664153D01*
X102099945Y-85796982D01*
X101986982Y-85909945D01*
X101854153Y-85998699D01*
X101854152Y-85998700D01*
X101854151Y-85998700D01*
X101706560Y-86059834D01*
X101549878Y-86091000D01*
X101390122Y-86091000D01*
X101233440Y-86059834D01*
X101085849Y-85998700D01*
X101085848Y-85998700D01*
X101085847Y-85998699D01*
X100953018Y-85909945D01*
X100840055Y-85796982D01*
X100751301Y-85664153D01*
X100690166Y-85516560D01*
X100659000Y-85359877D01*
X100659000Y-85200123D01*
X100690166Y-85043440D01*
X100751301Y-84895847D01*
X100840055Y-84763018D01*
X100953018Y-84650055D01*
X101085847Y-84561301D01*
X101233440Y-84500166D01*
X101390122Y-84469000D01*
X101549878Y-84469000D01*
X101706560Y-84500166D01*
X101706560Y-84500166D01*
G37*
G36*
X101706560Y-81960166D02*
G01*
X101853427Y-82021000D01*
X101854153Y-82021301D01*
X101986982Y-82110055D01*
X102099945Y-82223018D01*
X102188699Y-82355847D01*
X102249834Y-82503440D01*
X102281000Y-82660123D01*
X102281000Y-82819877D01*
X102249834Y-82976560D01*
X102188699Y-83124153D01*
X102099945Y-83256982D01*
X101986982Y-83369945D01*
X101854153Y-83458699D01*
X101854152Y-83458700D01*
X101854151Y-83458700D01*
X101706560Y-83519834D01*
X101549878Y-83551000D01*
X101390122Y-83551000D01*
X101233440Y-83519834D01*
X101085849Y-83458700D01*
X101085848Y-83458700D01*
X101085847Y-83458699D01*
X100953018Y-83369945D01*
X100840055Y-83256982D01*
X100751301Y-83124153D01*
X100690166Y-82976560D01*
X100659000Y-82819877D01*
X100659000Y-82660123D01*
X100690166Y-82503440D01*
X100751301Y-82355847D01*
X100840055Y-82223018D01*
X100953018Y-82110055D01*
X101085847Y-82021301D01*
X101086574Y-82021000D01*
X101233440Y-81960166D01*
X101390122Y-81929000D01*
X101549878Y-81929000D01*
X101706560Y-81960166D01*
X101706560Y-81960166D01*
G37*
G36*
X116946560Y-81960166D02*
G01*
X117093427Y-82021000D01*
X117094153Y-82021301D01*
X117226982Y-82110055D01*
X117339945Y-82223018D01*
X117428699Y-82355847D01*
X117489834Y-82503440D01*
X117521000Y-82660123D01*
X117521000Y-82819877D01*
X117489834Y-82976560D01*
X117428699Y-83124153D01*
X117339945Y-83256982D01*
X117226982Y-83369945D01*
X117094153Y-83458699D01*
X117094152Y-83458700D01*
X117094151Y-83458700D01*
X116946560Y-83519834D01*
X116789878Y-83551000D01*
X116630122Y-83551000D01*
X116473440Y-83519834D01*
X116325849Y-83458700D01*
X116325848Y-83458700D01*
X116325847Y-83458699D01*
X116193018Y-83369945D01*
X116080055Y-83256982D01*
X115991301Y-83124153D01*
X115930166Y-82976560D01*
X115899000Y-82819877D01*
X115899000Y-82660123D01*
X115930166Y-82503440D01*
X115991301Y-82355847D01*
X116080055Y-82223018D01*
X116193018Y-82110055D01*
X116325847Y-82021301D01*
X116326574Y-82021000D01*
X116473440Y-81960166D01*
X116630122Y-81929000D01*
X116789878Y-81929000D01*
X116946560Y-81960166D01*
X116946560Y-81960166D01*
G37*
G36*
X70346560Y-80430166D02*
G01*
X70361997Y-80436560D01*
X70494153Y-80491301D01*
X70626982Y-80580055D01*
X70739945Y-80693018D01*
X70828700Y-80825849D01*
X70867160Y-80918699D01*
X70889834Y-80973440D01*
X70921000Y-81130123D01*
X70921000Y-81289877D01*
X70889834Y-81446560D01*
X70828699Y-81594153D01*
X70739945Y-81726982D01*
X70626982Y-81839945D01*
X70494153Y-81928699D01*
X70494152Y-81928700D01*
X70494151Y-81928700D01*
X70346560Y-81989834D01*
X70189878Y-82021000D01*
X70030122Y-82021000D01*
X69873440Y-81989834D01*
X69725849Y-81928700D01*
X69725848Y-81928700D01*
X69725847Y-81928699D01*
X69593018Y-81839945D01*
X69480055Y-81726982D01*
X69391301Y-81594153D01*
X69330166Y-81446560D01*
X69299000Y-81289877D01*
X69299000Y-81130123D01*
X69330166Y-80973440D01*
X69352840Y-80918699D01*
X69391300Y-80825849D01*
X69480055Y-80693018D01*
X69593018Y-80580055D01*
X69725847Y-80491301D01*
X69858004Y-80436560D01*
X69873440Y-80430166D01*
X70030122Y-80399000D01*
X70189878Y-80399000D01*
X70346560Y-80430166D01*
X70346560Y-80430166D01*
G37*
G36*
X72886560Y-80430166D02*
G01*
X72901997Y-80436560D01*
X73034153Y-80491301D01*
X73166982Y-80580055D01*
X73279945Y-80693018D01*
X73368700Y-80825849D01*
X73407160Y-80918699D01*
X73429834Y-80973440D01*
X73461000Y-81130123D01*
X73461000Y-81289877D01*
X73429834Y-81446560D01*
X73368699Y-81594153D01*
X73279945Y-81726982D01*
X73166982Y-81839945D01*
X73034153Y-81928699D01*
X73034152Y-81928700D01*
X73034151Y-81928700D01*
X72886560Y-81989834D01*
X72729878Y-82021000D01*
X72570122Y-82021000D01*
X72413440Y-81989834D01*
X72265849Y-81928700D01*
X72265848Y-81928700D01*
X72265847Y-81928699D01*
X72133018Y-81839945D01*
X72020055Y-81726982D01*
X71931301Y-81594153D01*
X71870166Y-81446560D01*
X71839000Y-81289877D01*
X71839000Y-81130123D01*
X71870166Y-80973440D01*
X71892840Y-80918699D01*
X71931300Y-80825849D01*
X72020055Y-80693018D01*
X72133018Y-80580055D01*
X72265847Y-80491301D01*
X72398004Y-80436560D01*
X72413440Y-80430166D01*
X72570122Y-80399000D01*
X72729878Y-80399000D01*
X72886560Y-80430166D01*
X72886560Y-80430166D01*
G37*
G36*
X75426560Y-80430166D02*
G01*
X75441997Y-80436560D01*
X75574153Y-80491301D01*
X75706982Y-80580055D01*
X75819945Y-80693018D01*
X75908700Y-80825849D01*
X75947160Y-80918699D01*
X75969834Y-80973440D01*
X76001000Y-81130123D01*
X76001000Y-81289877D01*
X75969834Y-81446560D01*
X75908699Y-81594153D01*
X75819945Y-81726982D01*
X75706982Y-81839945D01*
X75574153Y-81928699D01*
X75574152Y-81928700D01*
X75574151Y-81928700D01*
X75426560Y-81989834D01*
X75269878Y-82021000D01*
X75110122Y-82021000D01*
X74953440Y-81989834D01*
X74805849Y-81928700D01*
X74805848Y-81928700D01*
X74805847Y-81928699D01*
X74673018Y-81839945D01*
X74560055Y-81726982D01*
X74471301Y-81594153D01*
X74410166Y-81446560D01*
X74379000Y-81289877D01*
X74379000Y-81130123D01*
X74410166Y-80973440D01*
X74432840Y-80918699D01*
X74471300Y-80825849D01*
X74560055Y-80693018D01*
X74673018Y-80580055D01*
X74805847Y-80491301D01*
X74938004Y-80436560D01*
X74953440Y-80430166D01*
X75110122Y-80399000D01*
X75269878Y-80399000D01*
X75426560Y-80430166D01*
X75426560Y-80430166D01*
G37*
G36*
X77966560Y-80430166D02*
G01*
X77981997Y-80436560D01*
X78114153Y-80491301D01*
X78246982Y-80580055D01*
X78359945Y-80693018D01*
X78448700Y-80825849D01*
X78487160Y-80918699D01*
X78509834Y-80973440D01*
X78541000Y-81130123D01*
X78541000Y-81289877D01*
X78509834Y-81446560D01*
X78448699Y-81594153D01*
X78359945Y-81726982D01*
X78246982Y-81839945D01*
X78114153Y-81928699D01*
X78114152Y-81928700D01*
X78114151Y-81928700D01*
X77966560Y-81989834D01*
X77809878Y-82021000D01*
X77650122Y-82021000D01*
X77493440Y-81989834D01*
X77345849Y-81928700D01*
X77345848Y-81928700D01*
X77345847Y-81928699D01*
X77213018Y-81839945D01*
X77100055Y-81726982D01*
X77011301Y-81594153D01*
X76950166Y-81446560D01*
X76919000Y-81289877D01*
X76919000Y-81130123D01*
X76950166Y-80973440D01*
X76972840Y-80918699D01*
X77011300Y-80825849D01*
X77100055Y-80693018D01*
X77213018Y-80580055D01*
X77345847Y-80491301D01*
X77478004Y-80436560D01*
X77493440Y-80430166D01*
X77650122Y-80399000D01*
X77809878Y-80399000D01*
X77966560Y-80430166D01*
X77966560Y-80430166D01*
G37*
G36*
X80506560Y-80430166D02*
G01*
X80521997Y-80436560D01*
X80654153Y-80491301D01*
X80786982Y-80580055D01*
X80899945Y-80693018D01*
X80988700Y-80825849D01*
X81027160Y-80918699D01*
X81049834Y-80973440D01*
X81081000Y-81130123D01*
X81081000Y-81289877D01*
X81049834Y-81446560D01*
X80988699Y-81594153D01*
X80899945Y-81726982D01*
X80786982Y-81839945D01*
X80654153Y-81928699D01*
X80654152Y-81928700D01*
X80654151Y-81928700D01*
X80506560Y-81989834D01*
X80349878Y-82021000D01*
X80190122Y-82021000D01*
X80033440Y-81989834D01*
X79885849Y-81928700D01*
X79885848Y-81928700D01*
X79885847Y-81928699D01*
X79753018Y-81839945D01*
X79640055Y-81726982D01*
X79551301Y-81594153D01*
X79490166Y-81446560D01*
X79459000Y-81289877D01*
X79459000Y-81130123D01*
X79490166Y-80973440D01*
X79512840Y-80918699D01*
X79551300Y-80825849D01*
X79640055Y-80693018D01*
X79753018Y-80580055D01*
X79885847Y-80491301D01*
X80018004Y-80436560D01*
X80033440Y-80430166D01*
X80190122Y-80399000D01*
X80349878Y-80399000D01*
X80506560Y-80430166D01*
X80506560Y-80430166D01*
G37*
G36*
X83046560Y-80430166D02*
G01*
X83061997Y-80436560D01*
X83194153Y-80491301D01*
X83326982Y-80580055D01*
X83439945Y-80693018D01*
X83528700Y-80825849D01*
X83567160Y-80918699D01*
X83589834Y-80973440D01*
X83621000Y-81130123D01*
X83621000Y-81289877D01*
X83589834Y-81446560D01*
X83528699Y-81594153D01*
X83439945Y-81726982D01*
X83326982Y-81839945D01*
X83194153Y-81928699D01*
X83194152Y-81928700D01*
X83194151Y-81928700D01*
X83046560Y-81989834D01*
X82889878Y-82021000D01*
X82730122Y-82021000D01*
X82573440Y-81989834D01*
X82425849Y-81928700D01*
X82425848Y-81928700D01*
X82425847Y-81928699D01*
X82293018Y-81839945D01*
X82180055Y-81726982D01*
X82091301Y-81594153D01*
X82030166Y-81446560D01*
X81999000Y-81289877D01*
X81999000Y-81130123D01*
X82030166Y-80973440D01*
X82052840Y-80918699D01*
X82091300Y-80825849D01*
X82180055Y-80693018D01*
X82293018Y-80580055D01*
X82425847Y-80491301D01*
X82558004Y-80436560D01*
X82573440Y-80430166D01*
X82730122Y-80399000D01*
X82889878Y-80399000D01*
X83046560Y-80430166D01*
X83046560Y-80430166D01*
G37*
G36*
X86161000Y-82021000D02*
G01*
X84539000Y-82021000D01*
X84539000Y-80399000D01*
X86161000Y-80399000D01*
X86161000Y-82021000D01*
X86161000Y-82021000D01*
G37*
G36*
X116946560Y-79420166D02*
G01*
X117094153Y-79481301D01*
X117226982Y-79570055D01*
X117339945Y-79683018D01*
X117428700Y-79815849D01*
X117489834Y-79963440D01*
X117521000Y-80120122D01*
X117521000Y-80279878D01*
X117489834Y-80436560D01*
X117430397Y-80580055D01*
X117428699Y-80584153D01*
X117339945Y-80716982D01*
X117226982Y-80829945D01*
X117094153Y-80918699D01*
X117094152Y-80918700D01*
X117094151Y-80918700D01*
X116946560Y-80979834D01*
X116789878Y-81011000D01*
X116630122Y-81011000D01*
X116473440Y-80979834D01*
X116325849Y-80918700D01*
X116325848Y-80918700D01*
X116325847Y-80918699D01*
X116193018Y-80829945D01*
X116080055Y-80716982D01*
X115991301Y-80584153D01*
X115989604Y-80580055D01*
X115930166Y-80436560D01*
X115899000Y-80279878D01*
X115899000Y-80120122D01*
X115930166Y-79963440D01*
X115991300Y-79815849D01*
X116080055Y-79683018D01*
X116193018Y-79570055D01*
X116325847Y-79481301D01*
X116473440Y-79420166D01*
X116630122Y-79389000D01*
X116789878Y-79389000D01*
X116946560Y-79420166D01*
X116946560Y-79420166D01*
G37*
G36*
X101706560Y-79420166D02*
G01*
X101854153Y-79481301D01*
X101986982Y-79570055D01*
X102099945Y-79683018D01*
X102188700Y-79815849D01*
X102249834Y-79963440D01*
X102281000Y-80120122D01*
X102281000Y-80279878D01*
X102249834Y-80436560D01*
X102190397Y-80580055D01*
X102188699Y-80584153D01*
X102099945Y-80716982D01*
X101986982Y-80829945D01*
X101854153Y-80918699D01*
X101854152Y-80918700D01*
X101854151Y-80918700D01*
X101706560Y-80979834D01*
X101549878Y-81011000D01*
X101390122Y-81011000D01*
X101233440Y-80979834D01*
X101085849Y-80918700D01*
X101085848Y-80918700D01*
X101085847Y-80918699D01*
X100953018Y-80829945D01*
X100840055Y-80716982D01*
X100751301Y-80584153D01*
X100749604Y-80580055D01*
X100690166Y-80436560D01*
X100659000Y-80279878D01*
X100659000Y-80120122D01*
X100690166Y-79963440D01*
X100751300Y-79815849D01*
X100840055Y-79683018D01*
X100953018Y-79570055D01*
X101085847Y-79481301D01*
X101233440Y-79420166D01*
X101390122Y-79389000D01*
X101549878Y-79389000D01*
X101706560Y-79420166D01*
X101706560Y-79420166D01*
G37*
G36*
X116946560Y-76880166D02*
G01*
X117094153Y-76941301D01*
X117226982Y-77030055D01*
X117339945Y-77143018D01*
X117428699Y-77275847D01*
X117489834Y-77423440D01*
X117521000Y-77580123D01*
X117521000Y-77739877D01*
X117489834Y-77896560D01*
X117428699Y-78044153D01*
X117339945Y-78176982D01*
X117226982Y-78289945D01*
X117094153Y-78378699D01*
X117094152Y-78378700D01*
X117094151Y-78378700D01*
X116946560Y-78439834D01*
X116789878Y-78471000D01*
X116630122Y-78471000D01*
X116473440Y-78439834D01*
X116325849Y-78378700D01*
X116325848Y-78378700D01*
X116325847Y-78378699D01*
X116193018Y-78289945D01*
X116080055Y-78176982D01*
X115991301Y-78044153D01*
X115930166Y-77896560D01*
X115899000Y-77739877D01*
X115899000Y-77580123D01*
X115930166Y-77423440D01*
X115991301Y-77275847D01*
X116080055Y-77143018D01*
X116193018Y-77030055D01*
X116325847Y-76941301D01*
X116473440Y-76880166D01*
X116630122Y-76849000D01*
X116789878Y-76849000D01*
X116946560Y-76880166D01*
X116946560Y-76880166D01*
G37*
G36*
X101706560Y-76880166D02*
G01*
X101854153Y-76941301D01*
X101986982Y-77030055D01*
X102099945Y-77143018D01*
X102188699Y-77275847D01*
X102249834Y-77423440D01*
X102281000Y-77580123D01*
X102281000Y-77739877D01*
X102249834Y-77896560D01*
X102188699Y-78044153D01*
X102099945Y-78176982D01*
X101986982Y-78289945D01*
X101854153Y-78378699D01*
X101854152Y-78378700D01*
X101854151Y-78378700D01*
X101706560Y-78439834D01*
X101549878Y-78471000D01*
X101390122Y-78471000D01*
X101233440Y-78439834D01*
X101085849Y-78378700D01*
X101085848Y-78378700D01*
X101085847Y-78378699D01*
X100953018Y-78289945D01*
X100840055Y-78176982D01*
X100751301Y-78044153D01*
X100690166Y-77896560D01*
X100659000Y-77739877D01*
X100659000Y-77580123D01*
X100690166Y-77423440D01*
X100751301Y-77275847D01*
X100840055Y-77143018D01*
X100953018Y-77030055D01*
X101085847Y-76941301D01*
X101233440Y-76880166D01*
X101390122Y-76849000D01*
X101549878Y-76849000D01*
X101706560Y-76880166D01*
X101706560Y-76880166D01*
G37*
G36*
X145961000Y-78331005D02*
G01*
X144339000Y-78331005D01*
X144339000Y-76709005D01*
X145961000Y-76709005D01*
X145961000Y-78331005D01*
X145961000Y-78331005D01*
G37*
G36*
X142846560Y-76740171D02*
G01*
X142994153Y-76801306D01*
X143126982Y-76890060D01*
X143239945Y-77003023D01*
X143328699Y-77135852D01*
X143389834Y-77283445D01*
X143421000Y-77440128D01*
X143421000Y-77599882D01*
X143389834Y-77756565D01*
X143328699Y-77904158D01*
X143239945Y-78036987D01*
X143126982Y-78149950D01*
X142994153Y-78238704D01*
X142994152Y-78238705D01*
X142994151Y-78238705D01*
X142846560Y-78299839D01*
X142689878Y-78331005D01*
X142530122Y-78331005D01*
X142373440Y-78299839D01*
X142225849Y-78238705D01*
X142225848Y-78238705D01*
X142225847Y-78238704D01*
X142093018Y-78149950D01*
X141980055Y-78036987D01*
X141891301Y-77904158D01*
X141830166Y-77756565D01*
X141799000Y-77599882D01*
X141799000Y-77440128D01*
X141830166Y-77283445D01*
X141891301Y-77135852D01*
X141980055Y-77003023D01*
X142093018Y-76890060D01*
X142225847Y-76801306D01*
X142373440Y-76740171D01*
X142530122Y-76709005D01*
X142689878Y-76709005D01*
X142846560Y-76740171D01*
X142846560Y-76740171D01*
G37*
G36*
X140306560Y-76740171D02*
G01*
X140454153Y-76801306D01*
X140586982Y-76890060D01*
X140699945Y-77003023D01*
X140788699Y-77135852D01*
X140849834Y-77283445D01*
X140881000Y-77440128D01*
X140881000Y-77599882D01*
X140849834Y-77756565D01*
X140788699Y-77904158D01*
X140699945Y-78036987D01*
X140586982Y-78149950D01*
X140454153Y-78238704D01*
X140454152Y-78238705D01*
X140454151Y-78238705D01*
X140306560Y-78299839D01*
X140149878Y-78331005D01*
X139990122Y-78331005D01*
X139833440Y-78299839D01*
X139685849Y-78238705D01*
X139685848Y-78238705D01*
X139685847Y-78238704D01*
X139553018Y-78149950D01*
X139440055Y-78036987D01*
X139351301Y-77904158D01*
X139290166Y-77756565D01*
X139259000Y-77599882D01*
X139259000Y-77440128D01*
X139290166Y-77283445D01*
X139351301Y-77135852D01*
X139440055Y-77003023D01*
X139553018Y-76890060D01*
X139685847Y-76801306D01*
X139833440Y-76740171D01*
X139990122Y-76709005D01*
X140149878Y-76709005D01*
X140306560Y-76740171D01*
X140306560Y-76740171D01*
G37*
G36*
X137766560Y-76740171D02*
G01*
X137914153Y-76801306D01*
X138046982Y-76890060D01*
X138159945Y-77003023D01*
X138248699Y-77135852D01*
X138309834Y-77283445D01*
X138341000Y-77440128D01*
X138341000Y-77599882D01*
X138309834Y-77756565D01*
X138248699Y-77904158D01*
X138159945Y-78036987D01*
X138046982Y-78149950D01*
X137914153Y-78238704D01*
X137914152Y-78238705D01*
X137914151Y-78238705D01*
X137766560Y-78299839D01*
X137609878Y-78331005D01*
X137450122Y-78331005D01*
X137293440Y-78299839D01*
X137145849Y-78238705D01*
X137145848Y-78238705D01*
X137145847Y-78238704D01*
X137013018Y-78149950D01*
X136900055Y-78036987D01*
X136811301Y-77904158D01*
X136750166Y-77756565D01*
X136719000Y-77599882D01*
X136719000Y-77440128D01*
X136750166Y-77283445D01*
X136811301Y-77135852D01*
X136900055Y-77003023D01*
X137013018Y-76890060D01*
X137145847Y-76801306D01*
X137293440Y-76740171D01*
X137450122Y-76709005D01*
X137609878Y-76709005D01*
X137766560Y-76740171D01*
X137766560Y-76740171D01*
G37*
G36*
X135226560Y-76740171D02*
G01*
X135374153Y-76801306D01*
X135506982Y-76890060D01*
X135619945Y-77003023D01*
X135708699Y-77135852D01*
X135769834Y-77283445D01*
X135801000Y-77440128D01*
X135801000Y-77599882D01*
X135769834Y-77756565D01*
X135708699Y-77904158D01*
X135619945Y-78036987D01*
X135506982Y-78149950D01*
X135374153Y-78238704D01*
X135374152Y-78238705D01*
X135374151Y-78238705D01*
X135226560Y-78299839D01*
X135069878Y-78331005D01*
X134910122Y-78331005D01*
X134753440Y-78299839D01*
X134605849Y-78238705D01*
X134605848Y-78238705D01*
X134605847Y-78238704D01*
X134473018Y-78149950D01*
X134360055Y-78036987D01*
X134271301Y-77904158D01*
X134210166Y-77756565D01*
X134179000Y-77599882D01*
X134179000Y-77440128D01*
X134210166Y-77283445D01*
X134271301Y-77135852D01*
X134360055Y-77003023D01*
X134473018Y-76890060D01*
X134605847Y-76801306D01*
X134753440Y-76740171D01*
X134910122Y-76709005D01*
X135069878Y-76709005D01*
X135226560Y-76740171D01*
X135226560Y-76740171D01*
G37*
G36*
X132686560Y-76740171D02*
G01*
X132834153Y-76801306D01*
X132966982Y-76890060D01*
X133079945Y-77003023D01*
X133168699Y-77135852D01*
X133229834Y-77283445D01*
X133261000Y-77440128D01*
X133261000Y-77599882D01*
X133229834Y-77756565D01*
X133168699Y-77904158D01*
X133079945Y-78036987D01*
X132966982Y-78149950D01*
X132834153Y-78238704D01*
X132834152Y-78238705D01*
X132834151Y-78238705D01*
X132686560Y-78299839D01*
X132529878Y-78331005D01*
X132370122Y-78331005D01*
X132213440Y-78299839D01*
X132065849Y-78238705D01*
X132065848Y-78238705D01*
X132065847Y-78238704D01*
X131933018Y-78149950D01*
X131820055Y-78036987D01*
X131731301Y-77904158D01*
X131670166Y-77756565D01*
X131639000Y-77599882D01*
X131639000Y-77440128D01*
X131670166Y-77283445D01*
X131731301Y-77135852D01*
X131820055Y-77003023D01*
X131933018Y-76890060D01*
X132065847Y-76801306D01*
X132213440Y-76740171D01*
X132370122Y-76709005D01*
X132529878Y-76709005D01*
X132686560Y-76740171D01*
X132686560Y-76740171D01*
G37*
G36*
X130146560Y-76740171D02*
G01*
X130294153Y-76801306D01*
X130426982Y-76890060D01*
X130539945Y-77003023D01*
X130628699Y-77135852D01*
X130689834Y-77283445D01*
X130721000Y-77440128D01*
X130721000Y-77599882D01*
X130689834Y-77756565D01*
X130628699Y-77904158D01*
X130539945Y-78036987D01*
X130426982Y-78149950D01*
X130294153Y-78238704D01*
X130294152Y-78238705D01*
X130294151Y-78238705D01*
X130146560Y-78299839D01*
X129989878Y-78331005D01*
X129830122Y-78331005D01*
X129673440Y-78299839D01*
X129525849Y-78238705D01*
X129525848Y-78238705D01*
X129525847Y-78238704D01*
X129393018Y-78149950D01*
X129280055Y-78036987D01*
X129191301Y-77904158D01*
X129130166Y-77756565D01*
X129099000Y-77599882D01*
X129099000Y-77440128D01*
X129130166Y-77283445D01*
X129191301Y-77135852D01*
X129280055Y-77003023D01*
X129393018Y-76890060D01*
X129525847Y-76801306D01*
X129673440Y-76740171D01*
X129830122Y-76709005D01*
X129989878Y-76709005D01*
X130146560Y-76740171D01*
X130146560Y-76740171D01*
G37*
G36*
X116946560Y-74340166D02*
G01*
X117094153Y-74401301D01*
X117226982Y-74490055D01*
X117339945Y-74603018D01*
X117428699Y-74735847D01*
X117489834Y-74883440D01*
X117521000Y-75040123D01*
X117521000Y-75199877D01*
X117489834Y-75356560D01*
X117428699Y-75504153D01*
X117339945Y-75636982D01*
X117226982Y-75749945D01*
X117094153Y-75838699D01*
X117094152Y-75838700D01*
X117094151Y-75838700D01*
X116946560Y-75899834D01*
X116789878Y-75931000D01*
X116630122Y-75931000D01*
X116473440Y-75899834D01*
X116325849Y-75838700D01*
X116325848Y-75838700D01*
X116325847Y-75838699D01*
X116193018Y-75749945D01*
X116080055Y-75636982D01*
X115991301Y-75504153D01*
X115930166Y-75356560D01*
X115899000Y-75199877D01*
X115899000Y-75040123D01*
X115930166Y-74883440D01*
X115991301Y-74735847D01*
X116080055Y-74603018D01*
X116193018Y-74490055D01*
X116325847Y-74401301D01*
X116473440Y-74340166D01*
X116630122Y-74309000D01*
X116789878Y-74309000D01*
X116946560Y-74340166D01*
X116946560Y-74340166D01*
G37*
G36*
X101706560Y-74340166D02*
G01*
X101854153Y-74401301D01*
X101986982Y-74490055D01*
X102099945Y-74603018D01*
X102188699Y-74735847D01*
X102249834Y-74883440D01*
X102281000Y-75040123D01*
X102281000Y-75199877D01*
X102249834Y-75356560D01*
X102188699Y-75504153D01*
X102099945Y-75636982D01*
X101986982Y-75749945D01*
X101854153Y-75838699D01*
X101854152Y-75838700D01*
X101854151Y-75838700D01*
X101706560Y-75899834D01*
X101549878Y-75931000D01*
X101390122Y-75931000D01*
X101233440Y-75899834D01*
X101085849Y-75838700D01*
X101085848Y-75838700D01*
X101085847Y-75838699D01*
X100953018Y-75749945D01*
X100840055Y-75636982D01*
X100751301Y-75504153D01*
X100690166Y-75356560D01*
X100659000Y-75199877D01*
X100659000Y-75040123D01*
X100690166Y-74883440D01*
X100751301Y-74735847D01*
X100840055Y-74603018D01*
X100953018Y-74490055D01*
X101085847Y-74401301D01*
X101233440Y-74340166D01*
X101390122Y-74309000D01*
X101549878Y-74309000D01*
X101706560Y-74340166D01*
X101706560Y-74340166D01*
G37*
G36*
X101706560Y-71800166D02*
G01*
X101854153Y-71861301D01*
X101986982Y-71950055D01*
X102099945Y-72063018D01*
X102188699Y-72195847D01*
X102249834Y-72343440D01*
X102281000Y-72500123D01*
X102281000Y-72659877D01*
X102249834Y-72816560D01*
X102188699Y-72964153D01*
X102099945Y-73096982D01*
X101986982Y-73209945D01*
X101854153Y-73298699D01*
X101854152Y-73298700D01*
X101854151Y-73298700D01*
X101706560Y-73359834D01*
X101549878Y-73391000D01*
X101390122Y-73391000D01*
X101233440Y-73359834D01*
X101085849Y-73298700D01*
X101085848Y-73298700D01*
X101085847Y-73298699D01*
X100953018Y-73209945D01*
X100840055Y-73096982D01*
X100751301Y-72964153D01*
X100690166Y-72816560D01*
X100659000Y-72659877D01*
X100659000Y-72500123D01*
X100690166Y-72343440D01*
X100751301Y-72195847D01*
X100840055Y-72063018D01*
X100953018Y-71950055D01*
X101085847Y-71861301D01*
X101233440Y-71800166D01*
X101390122Y-71769000D01*
X101549878Y-71769000D01*
X101706560Y-71800166D01*
X101706560Y-71800166D01*
G37*
G36*
X116946560Y-71800166D02*
G01*
X117094153Y-71861301D01*
X117226982Y-71950055D01*
X117339945Y-72063018D01*
X117428699Y-72195847D01*
X117489834Y-72343440D01*
X117521000Y-72500123D01*
X117521000Y-72659877D01*
X117489834Y-72816560D01*
X117428699Y-72964153D01*
X117339945Y-73096982D01*
X117226982Y-73209945D01*
X117094153Y-73298699D01*
X117094152Y-73298700D01*
X117094151Y-73298700D01*
X116946560Y-73359834D01*
X116789878Y-73391000D01*
X116630122Y-73391000D01*
X116473440Y-73359834D01*
X116325849Y-73298700D01*
X116325848Y-73298700D01*
X116325847Y-73298699D01*
X116193018Y-73209945D01*
X116080055Y-73096982D01*
X115991301Y-72964153D01*
X115930166Y-72816560D01*
X115899000Y-72659877D01*
X115899000Y-72500123D01*
X115930166Y-72343440D01*
X115991301Y-72195847D01*
X116080055Y-72063018D01*
X116193018Y-71950055D01*
X116325847Y-71861301D01*
X116473440Y-71800166D01*
X116630122Y-71769000D01*
X116789878Y-71769000D01*
X116946560Y-71800166D01*
X116946560Y-71800166D01*
G37*
G36*
X116946560Y-69260166D02*
G01*
X117094153Y-69321301D01*
X117226982Y-69410055D01*
X117339945Y-69523018D01*
X117428699Y-69655847D01*
X117489834Y-69803440D01*
X117521000Y-69960123D01*
X117521000Y-70119877D01*
X117489834Y-70276560D01*
X117428699Y-70424153D01*
X117339945Y-70556982D01*
X117226982Y-70669945D01*
X117094153Y-70758699D01*
X117094152Y-70758700D01*
X117094151Y-70758700D01*
X116946560Y-70819834D01*
X116789878Y-70851000D01*
X116630122Y-70851000D01*
X116473440Y-70819834D01*
X116325849Y-70758700D01*
X116325848Y-70758700D01*
X116325847Y-70758699D01*
X116193018Y-70669945D01*
X116080055Y-70556982D01*
X115991301Y-70424153D01*
X115930166Y-70276560D01*
X115899000Y-70119877D01*
X115899000Y-69960123D01*
X115930166Y-69803440D01*
X115991301Y-69655847D01*
X116080055Y-69523018D01*
X116193018Y-69410055D01*
X116325847Y-69321301D01*
X116473440Y-69260166D01*
X116630122Y-69229000D01*
X116789878Y-69229000D01*
X116946560Y-69260166D01*
X116946560Y-69260166D01*
G37*
G36*
X101706560Y-69260166D02*
G01*
X101854153Y-69321301D01*
X101986982Y-69410055D01*
X102099945Y-69523018D01*
X102188699Y-69655847D01*
X102249834Y-69803440D01*
X102281000Y-69960123D01*
X102281000Y-70119877D01*
X102249834Y-70276560D01*
X102188699Y-70424153D01*
X102099945Y-70556982D01*
X101986982Y-70669945D01*
X101854153Y-70758699D01*
X101854152Y-70758700D01*
X101854151Y-70758700D01*
X101706560Y-70819834D01*
X101549878Y-70851000D01*
X101390122Y-70851000D01*
X101233440Y-70819834D01*
X101085849Y-70758700D01*
X101085848Y-70758700D01*
X101085847Y-70758699D01*
X100953018Y-70669945D01*
X100840055Y-70556982D01*
X100751301Y-70424153D01*
X100690166Y-70276560D01*
X100659000Y-70119877D01*
X100659000Y-69960123D01*
X100690166Y-69803440D01*
X100751301Y-69655847D01*
X100840055Y-69523018D01*
X100953018Y-69410055D01*
X101085847Y-69321301D01*
X101233440Y-69260166D01*
X101390122Y-69229000D01*
X101549878Y-69229000D01*
X101706560Y-69260166D01*
X101706560Y-69260166D01*
G37*
G36*
X116946560Y-66720166D02*
G01*
X117094153Y-66781301D01*
X117226982Y-66870055D01*
X117339945Y-66983018D01*
X117428699Y-67115847D01*
X117489834Y-67263440D01*
X117521000Y-67420123D01*
X117521000Y-67579877D01*
X117489834Y-67736560D01*
X117428699Y-67884153D01*
X117339945Y-68016982D01*
X117226982Y-68129945D01*
X117094153Y-68218699D01*
X117094152Y-68218700D01*
X117094151Y-68218700D01*
X116946560Y-68279834D01*
X116789878Y-68311000D01*
X116630122Y-68311000D01*
X116473440Y-68279834D01*
X116325849Y-68218700D01*
X116325848Y-68218700D01*
X116325847Y-68218699D01*
X116193018Y-68129945D01*
X116080055Y-68016982D01*
X115991301Y-67884153D01*
X115930166Y-67736560D01*
X115899000Y-67579877D01*
X115899000Y-67420123D01*
X115930166Y-67263440D01*
X115991301Y-67115847D01*
X116080055Y-66983018D01*
X116193018Y-66870055D01*
X116325847Y-66781301D01*
X116473440Y-66720166D01*
X116630122Y-66689000D01*
X116789878Y-66689000D01*
X116946560Y-66720166D01*
X116946560Y-66720166D01*
G37*
G36*
X101706560Y-66720166D02*
G01*
X101854153Y-66781301D01*
X101986982Y-66870055D01*
X102099945Y-66983018D01*
X102188699Y-67115847D01*
X102249834Y-67263440D01*
X102281000Y-67420123D01*
X102281000Y-67579877D01*
X102249834Y-67736560D01*
X102188699Y-67884153D01*
X102099945Y-68016982D01*
X101986982Y-68129945D01*
X101854153Y-68218699D01*
X101854152Y-68218700D01*
X101854151Y-68218700D01*
X101706560Y-68279834D01*
X101549878Y-68311000D01*
X101390122Y-68311000D01*
X101233440Y-68279834D01*
X101085849Y-68218700D01*
X101085848Y-68218700D01*
X101085847Y-68218699D01*
X100953018Y-68129945D01*
X100840055Y-68016982D01*
X100751301Y-67884153D01*
X100690166Y-67736560D01*
X100659000Y-67579877D01*
X100659000Y-67420123D01*
X100690166Y-67263440D01*
X100751301Y-67115847D01*
X100840055Y-66983018D01*
X100953018Y-66870055D01*
X101085847Y-66781301D01*
X101233440Y-66720166D01*
X101390122Y-66689000D01*
X101549878Y-66689000D01*
X101706560Y-66720166D01*
X101706560Y-66720166D01*
G37*
G36*
X116946560Y-64180166D02*
G01*
X117094153Y-64241301D01*
X117226982Y-64330055D01*
X117339945Y-64443018D01*
X117428699Y-64575847D01*
X117489834Y-64723440D01*
X117521000Y-64880123D01*
X117521000Y-65039877D01*
X117489834Y-65196560D01*
X117428699Y-65344153D01*
X117339945Y-65476982D01*
X117226982Y-65589945D01*
X117094153Y-65678699D01*
X117094152Y-65678700D01*
X117094151Y-65678700D01*
X116946560Y-65739834D01*
X116789878Y-65771000D01*
X116630122Y-65771000D01*
X116473440Y-65739834D01*
X116325849Y-65678700D01*
X116325848Y-65678700D01*
X116325847Y-65678699D01*
X116193018Y-65589945D01*
X116080055Y-65476982D01*
X115991301Y-65344153D01*
X115930166Y-65196560D01*
X115899000Y-65039877D01*
X115899000Y-64880123D01*
X115930166Y-64723440D01*
X115991301Y-64575847D01*
X116080055Y-64443018D01*
X116193018Y-64330055D01*
X116325847Y-64241301D01*
X116473440Y-64180166D01*
X116630122Y-64149000D01*
X116789878Y-64149000D01*
X116946560Y-64180166D01*
X116946560Y-64180166D01*
G37*
G36*
X101706560Y-64180166D02*
G01*
X101854153Y-64241301D01*
X101986982Y-64330055D01*
X102099945Y-64443018D01*
X102188699Y-64575847D01*
X102249834Y-64723440D01*
X102281000Y-64880123D01*
X102281000Y-65039877D01*
X102249834Y-65196560D01*
X102188699Y-65344153D01*
X102099945Y-65476982D01*
X101986982Y-65589945D01*
X101854153Y-65678699D01*
X101854152Y-65678700D01*
X101854151Y-65678700D01*
X101706560Y-65739834D01*
X101549878Y-65771000D01*
X101390122Y-65771000D01*
X101233440Y-65739834D01*
X101085849Y-65678700D01*
X101085848Y-65678700D01*
X101085847Y-65678699D01*
X100953018Y-65589945D01*
X100840055Y-65476982D01*
X100751301Y-65344153D01*
X100690166Y-65196560D01*
X100659000Y-65039877D01*
X100659000Y-64880123D01*
X100690166Y-64723440D01*
X100751301Y-64575847D01*
X100840055Y-64443018D01*
X100953018Y-64330055D01*
X101085847Y-64241301D01*
X101233440Y-64180166D01*
X101390122Y-64149000D01*
X101549878Y-64149000D01*
X101706560Y-64180166D01*
X101706560Y-64180166D01*
G37*
G36*
X116946560Y-61640166D02*
G01*
X117094153Y-61701301D01*
X117226982Y-61790055D01*
X117339945Y-61903018D01*
X117428699Y-62035847D01*
X117489834Y-62183440D01*
X117521000Y-62340123D01*
X117521000Y-62499877D01*
X117489834Y-62656560D01*
X117428699Y-62804153D01*
X117339945Y-62936982D01*
X117226982Y-63049945D01*
X117094153Y-63138699D01*
X117094152Y-63138700D01*
X117094151Y-63138700D01*
X116946560Y-63199834D01*
X116789878Y-63231000D01*
X116630122Y-63231000D01*
X116473440Y-63199834D01*
X116325849Y-63138700D01*
X116325848Y-63138700D01*
X116325847Y-63138699D01*
X116193018Y-63049945D01*
X116080055Y-62936982D01*
X115991301Y-62804153D01*
X115930166Y-62656560D01*
X115899000Y-62499877D01*
X115899000Y-62340123D01*
X115930166Y-62183440D01*
X115991301Y-62035847D01*
X116080055Y-61903018D01*
X116193018Y-61790055D01*
X116325847Y-61701301D01*
X116473440Y-61640166D01*
X116630122Y-61609000D01*
X116789878Y-61609000D01*
X116946560Y-61640166D01*
X116946560Y-61640166D01*
G37*
G36*
X101706560Y-61640166D02*
G01*
X101854153Y-61701301D01*
X101986982Y-61790055D01*
X102099945Y-61903018D01*
X102188699Y-62035847D01*
X102249834Y-62183440D01*
X102281000Y-62340123D01*
X102281000Y-62499877D01*
X102249834Y-62656560D01*
X102188699Y-62804153D01*
X102099945Y-62936982D01*
X101986982Y-63049945D01*
X101854153Y-63138699D01*
X101854152Y-63138700D01*
X101854151Y-63138700D01*
X101706560Y-63199834D01*
X101549878Y-63231000D01*
X101390122Y-63231000D01*
X101233440Y-63199834D01*
X101085849Y-63138700D01*
X101085848Y-63138700D01*
X101085847Y-63138699D01*
X100953018Y-63049945D01*
X100840055Y-62936982D01*
X100751301Y-62804153D01*
X100690166Y-62656560D01*
X100659000Y-62499877D01*
X100659000Y-62340123D01*
X100690166Y-62183440D01*
X100751301Y-62035847D01*
X100840055Y-61903018D01*
X100953018Y-61790055D01*
X101085847Y-61701301D01*
X101233440Y-61640166D01*
X101390122Y-61609000D01*
X101549878Y-61609000D01*
X101706560Y-61640166D01*
X101706560Y-61640166D01*
G37*
G36*
X136956560Y-59240171D02*
G01*
X137104153Y-59301306D01*
X137196511Y-59363018D01*
X137236982Y-59390060D01*
X137349945Y-59503023D01*
X137438700Y-59635854D01*
X137499834Y-59783445D01*
X137531000Y-59940127D01*
X137531000Y-60099883D01*
X137499834Y-60256565D01*
X137441672Y-60396982D01*
X137438699Y-60404158D01*
X137349945Y-60536987D01*
X137236982Y-60649950D01*
X137104153Y-60738704D01*
X137104152Y-60738705D01*
X137104151Y-60738705D01*
X136956560Y-60799839D01*
X136799878Y-60831005D01*
X136640122Y-60831005D01*
X136483440Y-60799839D01*
X136335849Y-60738705D01*
X136335848Y-60738705D01*
X136335847Y-60738704D01*
X136203018Y-60649950D01*
X136090055Y-60536987D01*
X136001301Y-60404158D01*
X135998329Y-60396982D01*
X135940166Y-60256565D01*
X135909000Y-60099883D01*
X135909000Y-59940127D01*
X135940166Y-59783445D01*
X136001300Y-59635854D01*
X136090055Y-59503023D01*
X136203018Y-59390060D01*
X136243489Y-59363018D01*
X136335847Y-59301306D01*
X136483440Y-59240171D01*
X136640122Y-59209005D01*
X136799878Y-59209005D01*
X136956560Y-59240171D01*
X136956560Y-59240171D01*
G37*
G36*
X134416560Y-59240171D02*
G01*
X134564153Y-59301306D01*
X134656511Y-59363018D01*
X134696982Y-59390060D01*
X134809945Y-59503023D01*
X134898700Y-59635854D01*
X134959834Y-59783445D01*
X134991000Y-59940127D01*
X134991000Y-60099883D01*
X134959834Y-60256565D01*
X134901672Y-60396982D01*
X134898699Y-60404158D01*
X134809945Y-60536987D01*
X134696982Y-60649950D01*
X134564153Y-60738704D01*
X134564152Y-60738705D01*
X134564151Y-60738705D01*
X134416560Y-60799839D01*
X134259878Y-60831005D01*
X134100122Y-60831005D01*
X133943440Y-60799839D01*
X133795849Y-60738705D01*
X133795848Y-60738705D01*
X133795847Y-60738704D01*
X133663018Y-60649950D01*
X133550055Y-60536987D01*
X133461301Y-60404158D01*
X133458329Y-60396982D01*
X133400166Y-60256565D01*
X133369000Y-60099883D01*
X133369000Y-59940127D01*
X133400166Y-59783445D01*
X133461300Y-59635854D01*
X133550055Y-59503023D01*
X133663018Y-59390060D01*
X133703489Y-59363018D01*
X133795847Y-59301306D01*
X133943440Y-59240171D01*
X134100122Y-59209005D01*
X134259878Y-59209005D01*
X134416560Y-59240171D01*
X134416560Y-59240171D01*
G37*
G36*
X144576560Y-59240171D02*
G01*
X144724153Y-59301306D01*
X144816511Y-59363018D01*
X144856982Y-59390060D01*
X144969945Y-59503023D01*
X145058700Y-59635854D01*
X145119834Y-59783445D01*
X145151000Y-59940127D01*
X145151000Y-60099883D01*
X145119834Y-60256565D01*
X145061672Y-60396982D01*
X145058699Y-60404158D01*
X144969945Y-60536987D01*
X144856982Y-60649950D01*
X144724153Y-60738704D01*
X144724152Y-60738705D01*
X144724151Y-60738705D01*
X144576560Y-60799839D01*
X144419878Y-60831005D01*
X144260122Y-60831005D01*
X144103440Y-60799839D01*
X143955849Y-60738705D01*
X143955848Y-60738705D01*
X143955847Y-60738704D01*
X143823018Y-60649950D01*
X143710055Y-60536987D01*
X143621301Y-60404158D01*
X143618329Y-60396982D01*
X143560166Y-60256565D01*
X143529000Y-60099883D01*
X143529000Y-59940127D01*
X143560166Y-59783445D01*
X143621300Y-59635854D01*
X143710055Y-59503023D01*
X143823018Y-59390060D01*
X143863489Y-59363018D01*
X143955847Y-59301306D01*
X144103440Y-59240171D01*
X144260122Y-59209005D01*
X144419878Y-59209005D01*
X144576560Y-59240171D01*
X144576560Y-59240171D01*
G37*
G36*
X142036560Y-59240171D02*
G01*
X142184153Y-59301306D01*
X142276511Y-59363018D01*
X142316982Y-59390060D01*
X142429945Y-59503023D01*
X142518700Y-59635854D01*
X142579834Y-59783445D01*
X142611000Y-59940127D01*
X142611000Y-60099883D01*
X142579834Y-60256565D01*
X142521672Y-60396982D01*
X142518699Y-60404158D01*
X142429945Y-60536987D01*
X142316982Y-60649950D01*
X142184153Y-60738704D01*
X142184152Y-60738705D01*
X142184151Y-60738705D01*
X142036560Y-60799839D01*
X141879878Y-60831005D01*
X141720122Y-60831005D01*
X141563440Y-60799839D01*
X141415849Y-60738705D01*
X141415848Y-60738705D01*
X141415847Y-60738704D01*
X141283018Y-60649950D01*
X141170055Y-60536987D01*
X141081301Y-60404158D01*
X141078329Y-60396982D01*
X141020166Y-60256565D01*
X140989000Y-60099883D01*
X140989000Y-59940127D01*
X141020166Y-59783445D01*
X141081300Y-59635854D01*
X141170055Y-59503023D01*
X141283018Y-59390060D01*
X141323489Y-59363018D01*
X141415847Y-59301306D01*
X141563440Y-59240171D01*
X141720122Y-59209005D01*
X141879878Y-59209005D01*
X142036560Y-59240171D01*
X142036560Y-59240171D01*
G37*
G36*
X139496560Y-59240171D02*
G01*
X139644153Y-59301306D01*
X139736511Y-59363018D01*
X139776982Y-59390060D01*
X139889945Y-59503023D01*
X139978700Y-59635854D01*
X140039834Y-59783445D01*
X140071000Y-59940127D01*
X140071000Y-60099883D01*
X140039834Y-60256565D01*
X139981672Y-60396982D01*
X139978699Y-60404158D01*
X139889945Y-60536987D01*
X139776982Y-60649950D01*
X139644153Y-60738704D01*
X139644152Y-60738705D01*
X139644151Y-60738705D01*
X139496560Y-60799839D01*
X139339878Y-60831005D01*
X139180122Y-60831005D01*
X139023440Y-60799839D01*
X138875849Y-60738705D01*
X138875848Y-60738705D01*
X138875847Y-60738704D01*
X138743018Y-60649950D01*
X138630055Y-60536987D01*
X138541301Y-60404158D01*
X138538329Y-60396982D01*
X138480166Y-60256565D01*
X138449000Y-60099883D01*
X138449000Y-59940127D01*
X138480166Y-59783445D01*
X138541300Y-59635854D01*
X138630055Y-59503023D01*
X138743018Y-59390060D01*
X138783489Y-59363018D01*
X138875847Y-59301306D01*
X139023440Y-59240171D01*
X139180122Y-59209005D01*
X139339878Y-59209005D01*
X139496560Y-59240171D01*
X139496560Y-59240171D01*
G37*
G36*
X131876560Y-59240171D02*
G01*
X132024153Y-59301306D01*
X132116511Y-59363018D01*
X132156982Y-59390060D01*
X132269945Y-59503023D01*
X132358700Y-59635854D01*
X132419834Y-59783445D01*
X132451000Y-59940127D01*
X132451000Y-60099883D01*
X132419834Y-60256565D01*
X132361672Y-60396982D01*
X132358699Y-60404158D01*
X132269945Y-60536987D01*
X132156982Y-60649950D01*
X132024153Y-60738704D01*
X132024152Y-60738705D01*
X132024151Y-60738705D01*
X131876560Y-60799839D01*
X131719878Y-60831005D01*
X131560122Y-60831005D01*
X131403440Y-60799839D01*
X131255849Y-60738705D01*
X131255848Y-60738705D01*
X131255847Y-60738704D01*
X131123018Y-60649950D01*
X131010055Y-60536987D01*
X130921301Y-60404158D01*
X130918329Y-60396982D01*
X130860166Y-60256565D01*
X130829000Y-60099883D01*
X130829000Y-59940127D01*
X130860166Y-59783445D01*
X130921300Y-59635854D01*
X131010055Y-59503023D01*
X131123018Y-59390060D01*
X131163489Y-59363018D01*
X131255847Y-59301306D01*
X131403440Y-59240171D01*
X131560122Y-59209005D01*
X131719878Y-59209005D01*
X131876560Y-59240171D01*
X131876560Y-59240171D01*
G37*
G36*
X147691000Y-60831005D02*
G01*
X146069000Y-60831005D01*
X146069000Y-59209005D01*
X147691000Y-59209005D01*
X147691000Y-60831005D01*
X147691000Y-60831005D01*
G37*
G36*
X101706560Y-59100166D02*
G01*
X101854153Y-59161301D01*
X101972190Y-59240171D01*
X101986982Y-59250055D01*
X102099945Y-59363018D01*
X102188700Y-59495849D01*
X102246691Y-59635852D01*
X102249834Y-59643440D01*
X102281000Y-59800123D01*
X102281000Y-59959877D01*
X102249834Y-60116560D01*
X102188699Y-60264153D01*
X102099945Y-60396982D01*
X101986982Y-60509945D01*
X101854153Y-60598699D01*
X101854152Y-60598700D01*
X101854151Y-60598700D01*
X101706560Y-60659834D01*
X101549878Y-60691000D01*
X101390122Y-60691000D01*
X101233440Y-60659834D01*
X101085849Y-60598700D01*
X101085848Y-60598700D01*
X101085847Y-60598699D01*
X100953018Y-60509945D01*
X100840055Y-60396982D01*
X100751301Y-60264153D01*
X100690166Y-60116560D01*
X100659000Y-59959877D01*
X100659000Y-59800123D01*
X100690166Y-59643440D01*
X100693309Y-59635852D01*
X100751300Y-59495849D01*
X100840055Y-59363018D01*
X100953018Y-59250055D01*
X100967810Y-59240171D01*
X101085847Y-59161301D01*
X101233440Y-59100166D01*
X101390122Y-59069000D01*
X101549878Y-59069000D01*
X101706560Y-59100166D01*
X101706560Y-59100166D01*
G37*
G36*
X116946560Y-59100166D02*
G01*
X117094153Y-59161301D01*
X117212190Y-59240171D01*
X117226982Y-59250055D01*
X117339945Y-59363018D01*
X117428700Y-59495849D01*
X117486691Y-59635852D01*
X117489834Y-59643440D01*
X117521000Y-59800123D01*
X117521000Y-59959877D01*
X117489834Y-60116560D01*
X117428699Y-60264153D01*
X117339945Y-60396982D01*
X117226982Y-60509945D01*
X117094153Y-60598699D01*
X117094152Y-60598700D01*
X117094151Y-60598700D01*
X116946560Y-60659834D01*
X116789878Y-60691000D01*
X116630122Y-60691000D01*
X116473440Y-60659834D01*
X116325849Y-60598700D01*
X116325848Y-60598700D01*
X116325847Y-60598699D01*
X116193018Y-60509945D01*
X116080055Y-60396982D01*
X115991301Y-60264153D01*
X115930166Y-60116560D01*
X115899000Y-59959877D01*
X115899000Y-59800123D01*
X115930166Y-59643440D01*
X115933309Y-59635852D01*
X115991300Y-59495849D01*
X116080055Y-59363018D01*
X116193018Y-59250055D01*
X116207810Y-59240171D01*
X116325847Y-59161301D01*
X116473440Y-59100166D01*
X116630122Y-59069000D01*
X116789878Y-59069000D01*
X116946560Y-59100166D01*
X116946560Y-59100166D01*
G37*
G36*
X101706560Y-56560166D02*
G01*
X101854153Y-56621301D01*
X101986982Y-56710055D01*
X102099945Y-56823018D01*
X102188699Y-56955847D01*
X102249834Y-57103440D01*
X102281000Y-57260123D01*
X102281000Y-57419877D01*
X102249834Y-57576560D01*
X102188699Y-57724153D01*
X102099945Y-57856982D01*
X101986982Y-57969945D01*
X101854153Y-58058699D01*
X101854152Y-58058700D01*
X101854151Y-58058700D01*
X101706560Y-58119834D01*
X101549878Y-58151000D01*
X101390122Y-58151000D01*
X101233440Y-58119834D01*
X101085849Y-58058700D01*
X101085848Y-58058700D01*
X101085847Y-58058699D01*
X100953018Y-57969945D01*
X100840055Y-57856982D01*
X100751301Y-57724153D01*
X100690166Y-57576560D01*
X100659000Y-57419877D01*
X100659000Y-57260123D01*
X100690166Y-57103440D01*
X100751301Y-56955847D01*
X100840055Y-56823018D01*
X100953018Y-56710055D01*
X101085847Y-56621301D01*
X101233440Y-56560166D01*
X101390122Y-56529000D01*
X101549878Y-56529000D01*
X101706560Y-56560166D01*
X101706560Y-56560166D01*
G37*
G36*
X116946560Y-56560166D02*
G01*
X117094153Y-56621301D01*
X117226982Y-56710055D01*
X117339945Y-56823018D01*
X117428699Y-56955847D01*
X117489834Y-57103440D01*
X117521000Y-57260123D01*
X117521000Y-57419877D01*
X117489834Y-57576560D01*
X117428699Y-57724153D01*
X117339945Y-57856982D01*
X117226982Y-57969945D01*
X117094153Y-58058699D01*
X117094152Y-58058700D01*
X117094151Y-58058700D01*
X116946560Y-58119834D01*
X116789878Y-58151000D01*
X116630122Y-58151000D01*
X116473440Y-58119834D01*
X116325849Y-58058700D01*
X116325848Y-58058700D01*
X116325847Y-58058699D01*
X116193018Y-57969945D01*
X116080055Y-57856982D01*
X115991301Y-57724153D01*
X115930166Y-57576560D01*
X115899000Y-57419877D01*
X115899000Y-57260123D01*
X115930166Y-57103440D01*
X115991301Y-56955847D01*
X116080055Y-56823018D01*
X116193018Y-56710055D01*
X116325847Y-56621301D01*
X116473440Y-56560166D01*
X116630122Y-56529000D01*
X116789878Y-56529000D01*
X116946560Y-56560166D01*
X116946560Y-56560166D01*
G37*
G36*
X86161000Y-57111000D02*
G01*
X84539000Y-57111000D01*
X84539000Y-55489000D01*
X86161000Y-55489000D01*
X86161000Y-57111000D01*
X86161000Y-57111000D01*
G37*
G36*
X70346560Y-55520166D02*
G01*
X70490612Y-55579834D01*
X70494153Y-55581301D01*
X70626982Y-55670055D01*
X70739945Y-55783018D01*
X70828699Y-55915847D01*
X70889834Y-56063440D01*
X70921000Y-56220123D01*
X70921000Y-56379877D01*
X70889834Y-56536560D01*
X70828699Y-56684153D01*
X70739945Y-56816982D01*
X70626982Y-56929945D01*
X70494153Y-57018699D01*
X70494152Y-57018700D01*
X70494151Y-57018700D01*
X70346560Y-57079834D01*
X70189878Y-57111000D01*
X70030122Y-57111000D01*
X69873440Y-57079834D01*
X69725849Y-57018700D01*
X69725848Y-57018700D01*
X69725847Y-57018699D01*
X69593018Y-56929945D01*
X69480055Y-56816982D01*
X69391301Y-56684153D01*
X69330166Y-56536560D01*
X69299000Y-56379877D01*
X69299000Y-56220123D01*
X69330166Y-56063440D01*
X69391301Y-55915847D01*
X69480055Y-55783018D01*
X69593018Y-55670055D01*
X69725847Y-55581301D01*
X69729389Y-55579834D01*
X69873440Y-55520166D01*
X70030122Y-55489000D01*
X70189878Y-55489000D01*
X70346560Y-55520166D01*
X70346560Y-55520166D01*
G37*
G36*
X72886560Y-55520166D02*
G01*
X73030612Y-55579834D01*
X73034153Y-55581301D01*
X73166982Y-55670055D01*
X73279945Y-55783018D01*
X73368699Y-55915847D01*
X73429834Y-56063440D01*
X73461000Y-56220123D01*
X73461000Y-56379877D01*
X73429834Y-56536560D01*
X73368699Y-56684153D01*
X73279945Y-56816982D01*
X73166982Y-56929945D01*
X73034153Y-57018699D01*
X73034152Y-57018700D01*
X73034151Y-57018700D01*
X72886560Y-57079834D01*
X72729878Y-57111000D01*
X72570122Y-57111000D01*
X72413440Y-57079834D01*
X72265849Y-57018700D01*
X72265848Y-57018700D01*
X72265847Y-57018699D01*
X72133018Y-56929945D01*
X72020055Y-56816982D01*
X71931301Y-56684153D01*
X71870166Y-56536560D01*
X71839000Y-56379877D01*
X71839000Y-56220123D01*
X71870166Y-56063440D01*
X71931301Y-55915847D01*
X72020055Y-55783018D01*
X72133018Y-55670055D01*
X72265847Y-55581301D01*
X72269389Y-55579834D01*
X72413440Y-55520166D01*
X72570122Y-55489000D01*
X72729878Y-55489000D01*
X72886560Y-55520166D01*
X72886560Y-55520166D01*
G37*
G36*
X75426560Y-55520166D02*
G01*
X75570612Y-55579834D01*
X75574153Y-55581301D01*
X75706982Y-55670055D01*
X75819945Y-55783018D01*
X75908699Y-55915847D01*
X75969834Y-56063440D01*
X76001000Y-56220123D01*
X76001000Y-56379877D01*
X75969834Y-56536560D01*
X75908699Y-56684153D01*
X75819945Y-56816982D01*
X75706982Y-56929945D01*
X75574153Y-57018699D01*
X75574152Y-57018700D01*
X75574151Y-57018700D01*
X75426560Y-57079834D01*
X75269878Y-57111000D01*
X75110122Y-57111000D01*
X74953440Y-57079834D01*
X74805849Y-57018700D01*
X74805848Y-57018700D01*
X74805847Y-57018699D01*
X74673018Y-56929945D01*
X74560055Y-56816982D01*
X74471301Y-56684153D01*
X74410166Y-56536560D01*
X74379000Y-56379877D01*
X74379000Y-56220123D01*
X74410166Y-56063440D01*
X74471301Y-55915847D01*
X74560055Y-55783018D01*
X74673018Y-55670055D01*
X74805847Y-55581301D01*
X74809389Y-55579834D01*
X74953440Y-55520166D01*
X75110122Y-55489000D01*
X75269878Y-55489000D01*
X75426560Y-55520166D01*
X75426560Y-55520166D01*
G37*
G36*
X77966560Y-55520166D02*
G01*
X78110612Y-55579834D01*
X78114153Y-55581301D01*
X78246982Y-55670055D01*
X78359945Y-55783018D01*
X78448699Y-55915847D01*
X78509834Y-56063440D01*
X78541000Y-56220123D01*
X78541000Y-56379877D01*
X78509834Y-56536560D01*
X78448699Y-56684153D01*
X78359945Y-56816982D01*
X78246982Y-56929945D01*
X78114153Y-57018699D01*
X78114152Y-57018700D01*
X78114151Y-57018700D01*
X77966560Y-57079834D01*
X77809878Y-57111000D01*
X77650122Y-57111000D01*
X77493440Y-57079834D01*
X77345849Y-57018700D01*
X77345848Y-57018700D01*
X77345847Y-57018699D01*
X77213018Y-56929945D01*
X77100055Y-56816982D01*
X77011301Y-56684153D01*
X76950166Y-56536560D01*
X76919000Y-56379877D01*
X76919000Y-56220123D01*
X76950166Y-56063440D01*
X77011301Y-55915847D01*
X77100055Y-55783018D01*
X77213018Y-55670055D01*
X77345847Y-55581301D01*
X77349389Y-55579834D01*
X77493440Y-55520166D01*
X77650122Y-55489000D01*
X77809878Y-55489000D01*
X77966560Y-55520166D01*
X77966560Y-55520166D01*
G37*
G36*
X80506560Y-55520166D02*
G01*
X80650612Y-55579834D01*
X80654153Y-55581301D01*
X80786982Y-55670055D01*
X80899945Y-55783018D01*
X80988699Y-55915847D01*
X81049834Y-56063440D01*
X81081000Y-56220123D01*
X81081000Y-56379877D01*
X81049834Y-56536560D01*
X80988699Y-56684153D01*
X80899945Y-56816982D01*
X80786982Y-56929945D01*
X80654153Y-57018699D01*
X80654152Y-57018700D01*
X80654151Y-57018700D01*
X80506560Y-57079834D01*
X80349878Y-57111000D01*
X80190122Y-57111000D01*
X80033440Y-57079834D01*
X79885849Y-57018700D01*
X79885848Y-57018700D01*
X79885847Y-57018699D01*
X79753018Y-56929945D01*
X79640055Y-56816982D01*
X79551301Y-56684153D01*
X79490166Y-56536560D01*
X79459000Y-56379877D01*
X79459000Y-56220123D01*
X79490166Y-56063440D01*
X79551301Y-55915847D01*
X79640055Y-55783018D01*
X79753018Y-55670055D01*
X79885847Y-55581301D01*
X79889389Y-55579834D01*
X80033440Y-55520166D01*
X80190122Y-55489000D01*
X80349878Y-55489000D01*
X80506560Y-55520166D01*
X80506560Y-55520166D01*
G37*
G36*
X83046560Y-55520166D02*
G01*
X83190612Y-55579834D01*
X83194153Y-55581301D01*
X83326982Y-55670055D01*
X83439945Y-55783018D01*
X83528699Y-55915847D01*
X83589834Y-56063440D01*
X83621000Y-56220123D01*
X83621000Y-56379877D01*
X83589834Y-56536560D01*
X83528699Y-56684153D01*
X83439945Y-56816982D01*
X83326982Y-56929945D01*
X83194153Y-57018699D01*
X83194152Y-57018700D01*
X83194151Y-57018700D01*
X83046560Y-57079834D01*
X82889878Y-57111000D01*
X82730122Y-57111000D01*
X82573440Y-57079834D01*
X82425849Y-57018700D01*
X82425848Y-57018700D01*
X82425847Y-57018699D01*
X82293018Y-56929945D01*
X82180055Y-56816982D01*
X82091301Y-56684153D01*
X82030166Y-56536560D01*
X81999000Y-56379877D01*
X81999000Y-56220123D01*
X82030166Y-56063440D01*
X82091301Y-55915847D01*
X82180055Y-55783018D01*
X82293018Y-55670055D01*
X82425847Y-55581301D01*
X82429389Y-55579834D01*
X82573440Y-55520166D01*
X82730122Y-55489000D01*
X82889878Y-55489000D01*
X83046560Y-55520166D01*
X83046560Y-55520166D01*
G37*
G36*
X101706560Y-54020166D02*
G01*
X101854153Y-54081301D01*
X101986982Y-54170055D01*
X102099945Y-54283018D01*
X102188699Y-54415847D01*
X102249834Y-54563440D01*
X102281000Y-54720123D01*
X102281000Y-54879877D01*
X102249834Y-55036560D01*
X102188699Y-55184153D01*
X102099945Y-55316982D01*
X101986982Y-55429945D01*
X101854153Y-55518699D01*
X101854152Y-55518700D01*
X101854151Y-55518700D01*
X101706560Y-55579834D01*
X101549878Y-55611000D01*
X101390122Y-55611000D01*
X101233440Y-55579834D01*
X101085849Y-55518700D01*
X101085848Y-55518700D01*
X101085847Y-55518699D01*
X100953018Y-55429945D01*
X100840055Y-55316982D01*
X100751301Y-55184153D01*
X100690166Y-55036560D01*
X100659000Y-54879877D01*
X100659000Y-54720123D01*
X100690166Y-54563440D01*
X100751301Y-54415847D01*
X100840055Y-54283018D01*
X100953018Y-54170055D01*
X101085847Y-54081301D01*
X101233440Y-54020166D01*
X101390122Y-53989000D01*
X101549878Y-53989000D01*
X101706560Y-54020166D01*
X101706560Y-54020166D01*
G37*
G36*
X116946560Y-54020166D02*
G01*
X117094153Y-54081301D01*
X117226982Y-54170055D01*
X117339945Y-54283018D01*
X117428699Y-54415847D01*
X117489834Y-54563440D01*
X117521000Y-54720123D01*
X117521000Y-54879877D01*
X117489834Y-55036560D01*
X117428699Y-55184153D01*
X117339945Y-55316982D01*
X117226982Y-55429945D01*
X117094153Y-55518699D01*
X117094152Y-55518700D01*
X117094151Y-55518700D01*
X116946560Y-55579834D01*
X116789878Y-55611000D01*
X116630122Y-55611000D01*
X116473440Y-55579834D01*
X116325849Y-55518700D01*
X116325848Y-55518700D01*
X116325847Y-55518699D01*
X116193018Y-55429945D01*
X116080055Y-55316982D01*
X115991301Y-55184153D01*
X115930166Y-55036560D01*
X115899000Y-54879877D01*
X115899000Y-54720123D01*
X115930166Y-54563440D01*
X115991301Y-54415847D01*
X116080055Y-54283018D01*
X116193018Y-54170055D01*
X116325847Y-54081301D01*
X116473440Y-54020166D01*
X116630122Y-53989000D01*
X116789878Y-53989000D01*
X116946560Y-54020166D01*
X116946560Y-54020166D01*
G37*
G36*
X117521000Y-53071000D02*
G01*
X115899000Y-53071000D01*
X115899000Y-51449000D01*
X117521000Y-51449000D01*
X117521000Y-53071000D01*
X117521000Y-53071000D01*
G37*
G36*
X102281000Y-53071000D02*
G01*
X100659000Y-53071000D01*
X100659000Y-51449000D01*
X102281000Y-51449000D01*
X102281000Y-53071000D01*
X102281000Y-53071000D01*
G37*
M02*
