M48
; DRILL file {KiCad 5.1.4+dfsg1-1} date Sun 05 Jan 2020 04:24:42 PM PST
; FORMAT={-:-/ absolute / inch / decimal}
; #@! TF.CreationDate,2020-01-05T16:24:42-08:00
; #@! TF.GenerationSoftware,Kicad,Pcbnew,5.1.4+dfsg1-1
; #@! TF.FileFunction,Plated,1,2,PTH
FMAT,2
INCH
T1C0.0402
T2C0.1122
%
G90
G05
T1
X3.9949Y-2.0575
X3.9949Y-2.1575
X3.9949Y-2.2575
X3.9949Y-2.3575
X3.9949Y-2.4575
X3.9949Y-2.5575
X3.9949Y-2.6575
X3.9949Y-2.7575
X3.9949Y-2.8575
X3.9949Y-2.9575
X3.9949Y-3.0575
X3.9949Y-3.1575
X3.9949Y-3.2575
X3.9949Y-3.3575
X5.1827Y-2.363
X5.2827Y-2.363
X5.3827Y-2.363
X5.4827Y-2.363
X5.5827Y-2.363
X5.6827Y-2.363
X5.7827Y-2.363
X2.7602Y-3.1972
X2.8602Y-3.1972
X2.9602Y-3.1972
X3.0602Y-3.1972
X3.1602Y-3.1972
X3.2602Y-3.1972
X3.3602Y-3.1972
X2.7602Y-2.2165
X2.8602Y-2.2165
X2.9602Y-2.2165
X3.0602Y-2.2165
X3.1602Y-2.2165
X3.2602Y-2.2165
X3.3602Y-2.2165
X5.1146Y-3.052
X5.2146Y-3.052
X5.3146Y-3.052
X5.4146Y-3.052
X5.5146Y-3.052
X5.6146Y-3.052
X5.7146Y-3.052
X4.5949Y-2.0575
X4.5949Y-2.1575
X4.5949Y-2.2575
X4.5949Y-2.3575
X4.5949Y-2.4575
X4.5949Y-2.5575
X4.5949Y-2.6575
X4.5949Y-2.7575
X4.5949Y-2.8575
X4.5949Y-2.9575
X4.5949Y-3.0575
X4.5949Y-3.1575
X4.5949Y-3.2575
X4.5949Y-3.3575
T2
X2.4476Y-1.7626
X2.4476Y-3.6524
X5.9122Y-1.7626
X5.9122Y-3.6524
T0
M30
